<?xml version="1.0" encoding="utf-8"?>
<!-- Generator: Adobe Illustrator 16.0.0, SVG Export Plug-In . SVG Version: 6.00 Build 0)  -->
<!DOCTYPE svg PUBLIC "-//W3C//DTD SVG 1.1//EN" "http://www.w3.org/Graphics/SVG/1.1/DTD/svg11.dtd">
<svg version="1.1" id="Layer_1" xmlns="http://www.w3.org/2000/svg" xmlns:xlink="http://www.w3.org/1999/xlink" x="0px" y="0px"
	 width="21px" height="21px" viewBox="0 0 21 21" enable-background="new 0 0 21 21" xml:space="preserve">
<path display="none" fill="#848A2D" d="M19.996,19.29l-3.711-3.681c1.44-1.795,2.138-4.074,1.949-6.368s-1.249-4.429-2.963-5.965
	c-1.715-1.536-3.952-2.357-6.253-2.294s-4.49,1.005-6.118,2.633c-1.628,1.627-2.57,3.817-2.633,6.118
	c-0.063,2.3,0.758,4.539,2.294,6.252s3.671,2.774,5.965,2.964c2.294,0.188,4.573-0.51,6.369-1.949l3.681,3.68
	c0.092,0.094,0.203,0.168,0.324,0.219c0.123,0.051,0.253,0.077,0.385,0.077c0.133,0,0.264-0.026,0.385-0.077
	c0.122-0.051,0.232-0.125,0.326-0.219c0.18-0.187,0.28-0.436,0.28-0.695C20.276,19.726,20.176,19.477,19.996,19.29z M9.286,17
	c-1.385,0-2.738-0.41-3.889-1.18c-1.151-0.77-2.048-1.862-2.578-3.142S2.15,9.992,2.42,8.634S3.357,6.029,4.336,5.05
	S6.562,3.404,7.92,3.134s2.766-0.131,4.045,0.398c1.278,0.53,2.372,1.427,3.141,2.578c0.77,1.151,1.18,2.504,1.18,3.889
	c0,1.856-0.737,3.637-2.05,4.949C12.922,16.262,11.143,17,9.286,17z"/>
<path fill="#848A2D" d="M0,0.893c0-0.237,0.095-0.464,0.263-0.631C0.431,0.094,0.66,0,0.897,0h0.669
	c1.137,0,1.821,0.761,2.209,1.468c0.261,0.471,0.449,1.018,0.595,1.513c0.04-0.003,0.081-0.005,0.121-0.005H19.46
	c0.994,0,1.713,0.945,1.44,1.896l-2.19,7.63c-0.195,0.685-0.611,1.286-1.184,1.716c-0.57,0.428-1.267,0.66-1.983,0.66H8.419
	c-0.721,0-1.423-0.234-1.998-0.669c-0.573-0.435-0.988-1.047-1.179-1.737l-0.909-3.3L2.825,4.114L2.823,4.105
	C2.637,3.43,2.461,2.798,2.2,2.326C1.95,1.868,1.749,1.786,1.567,1.786H0.897c-0.237,0-0.466-0.094-0.635-0.262
	C0.095,1.357,0,1.129,0,0.893z M6.076,8.738l0.899,3.261c0.179,0.645,0.77,1.094,1.444,1.094h7.124c0.326,0,0.643-0.104,0.902-0.3
	c0.261-0.195,0.449-0.469,0.537-0.78l2.081-7.251H4.892l1.167,3.913L6.076,8.738z"/>
<path fill="#848A2D" d="M10.181,18.452c0,0.631-0.252,1.237-0.701,1.684c-0.45,0.446-1.059,0.697-1.695,0.697
	c-0.635,0-1.244-0.251-1.693-0.697c-0.45-0.446-0.702-1.053-0.702-1.684s0.252-1.237,0.702-1.684
	c0.449-0.446,1.058-0.697,1.693-0.697c0.636,0,1.245,0.251,1.695,0.697C9.928,17.215,10.181,17.821,10.181,18.452z M8.384,18.452
	c0-0.158-0.063-0.31-0.177-0.421c-0.111-0.111-0.264-0.175-0.423-0.175c-0.158,0-0.311,0.063-0.423,0.175
	c-0.112,0.111-0.174,0.263-0.174,0.421s0.063,0.31,0.174,0.421c0.113,0.111,0.265,0.174,0.423,0.174
	c0.159,0,0.312-0.063,0.423-0.174C8.322,18.762,8.384,18.61,8.384,18.452z"/>
<path fill="#848A2D" d="M18.564,18.452c0,0.631-0.252,1.237-0.7,1.684c-0.45,0.446-1.06,0.697-1.695,0.697
	c-0.635,0-1.244-0.251-1.692-0.697c-0.45-0.446-0.702-1.053-0.702-1.684s0.252-1.237,0.702-1.684
	c0.448-0.446,1.058-0.697,1.692-0.697c0.636,0,1.245,0.251,1.695,0.697C18.313,17.215,18.564,17.821,18.564,18.452z M16.769,18.452
	c0-0.158-0.063-0.31-0.177-0.421c-0.111-0.111-0.264-0.175-0.423-0.175c-0.158,0-0.311,0.063-0.423,0.175s-0.175,0.263-0.175,0.421
	s0.063,0.31,0.175,0.421s0.265,0.174,0.423,0.174c0.159,0,0.312-0.063,0.423-0.174C16.705,18.762,16.769,18.61,16.769,18.452z"/>
</svg>
