<svg width="17" height="16" viewBox="0 0 17 16" fill="none" xmlns="http://www.w3.org/2000/svg">
<path d="M14.0291 3.07329C13.317 2.3653 12.373 1.93484 11.3686 1.86021C10.3642 1.78558 9.36616 2.07173 8.55607 2.66662C7.70268 2.03572 6.64049 1.74963 5.58338 1.86598C4.52628 1.98233 3.55279 2.49248 2.85895 3.29368C2.16511 4.09488 1.80247 5.12764 1.84404 6.18397C1.88561 7.2403 2.32831 8.24174 3.08299 8.98662L8.07986 13.9533C8.14221 14.0158 8.21639 14.0654 8.29813 14.0992C8.37986 14.1331 8.46753 14.1505 8.55607 14.1505C8.64461 14.1505 8.73228 14.1331 8.81401 14.0992C8.89575 14.0654 8.96993 14.0158 9.03228 13.9533L14.0291 8.98662C14.4199 8.59844 14.73 8.13752 14.9415 7.6302C15.153 7.12288 15.2619 6.57911 15.2619 6.02996C15.2619 5.4808 15.153 4.93703 14.9415 4.42971C14.73 3.92239 14.4199 3.46147 14.0291 3.07329ZM13.0834 8.04662L8.55607 12.54L4.02871 8.04662C3.62974 7.64842 3.35797 7.14199 3.24747 6.59085C3.13697 6.03971 3.19267 5.46841 3.40759 4.94862C3.6225 4.42883 3.98705 3.98369 4.45552 3.66904C4.92398 3.35439 5.47549 3.18425 6.04087 3.17996C6.79617 3.1818 7.51987 3.48151 8.05303 4.01329C8.11538 4.07578 8.18956 4.12537 8.2713 4.15922C8.35303 4.19306 8.4407 4.21049 8.52924 4.21049C8.61778 4.21049 8.70545 4.19306 8.78718 4.15922C8.86892 4.12537 8.9431 4.07578 9.00545 4.01329C9.55432 3.54055 10.2634 3.29272 10.9891 3.31997C11.7149 3.34723 12.4031 3.64752 12.9145 4.16008C13.4259 4.67264 13.7223 5.35918 13.7437 6.08075C13.7651 6.80232 13.5099 7.50502 13.0298 8.04662H13.0834Z" fill="#848A2D"/>
</svg>
