<svg width="18" height="16" viewBox="0 0 18 16" fill="none" xmlns="http://www.w3.org/2000/svg">
<path d="M8.99101 2C9.48847 2 9.97476 2.14662 10.3884 2.42133C10.802 2.69603 11.1244 3.08648 11.3148 3.54329C11.5051 4.00011 11.5549 4.50277 11.4579 4.98773C11.3608 5.47268 11.1213 5.91814 10.7695 6.26777C10.4178 6.6174 9.9696 6.8555 9.4817 6.95196C8.9938 7.04843 8.48808 6.99892 8.02848 6.8097C7.56889 6.62048 7.17607 6.30005 6.8997 5.88893C6.62332 5.4778 6.47581 4.99445 6.47581 4.5C6.47581 3.83696 6.7408 3.20107 7.21249 2.73223C7.68419 2.26339 8.32394 2 8.99101 2ZM8.99101 1C8.29457 1 7.61376 1.20527 7.03469 1.58986C6.45562 1.97444 6.00429 2.52107 5.73777 3.16061C5.47125 3.80015 5.40152 4.50388 5.53739 5.18282C5.67326 5.86175 6.00863 6.48539 6.50109 6.97487C6.99355 7.46436 7.62098 7.7977 8.30404 7.93275C8.9871 8.0678 9.69512 7.99848 10.3385 7.73358C10.982 7.46867 11.5319 7.02007 11.9188 6.4445C12.3058 5.86892 12.5123 5.19223 12.5123 4.5C12.5123 3.57174 12.1413 2.6815 11.4809 2.02513C10.8206 1.36875 9.92491 1 8.99101 1Z" fill="#848A2D"/>
<path d="M14.0213 15H13.0152V12.5C13.0152 12.1717 12.9501 11.8466 12.8237 11.5433C12.6973 11.24 12.512 10.9644 12.2785 10.7322C12.0449 10.5001 11.7677 10.3159 11.4625 10.1903C11.1573 10.0647 10.8303 10 10.5 10H7.48173C6.81466 10 6.17491 10.2634 5.70322 10.7322C5.23152 11.2011 4.96653 11.837 4.96653 12.5V15H3.96045V12.5C3.96045 11.5717 4.33144 10.6815 4.99181 10.0251C5.65218 9.36875 6.54783 9 7.48173 9H10.5C11.4339 9 12.3295 9.36875 12.9899 10.0251C13.6503 10.6815 14.0213 11.5717 14.0213 12.5V15Z" fill="#848A2D"/>
</svg>
