<svg width="151" height="72" viewBox="0 0 151 72" fill="none" xmlns="http://www.w3.org/2000/svg">
<path d="M11.7957 41.8313C11.7825 41.833 11.7692 41.8298 11.7582 41.8224C11.7472 41.8149 11.7394 41.8036 11.7363 41.7908C11.7332 41.7779 11.735 41.7643 11.7413 41.7527C11.7477 41.7411 11.7581 41.7322 11.7706 41.7277C16.2174 40.1002 18.4825 39.1675 18.4825 36.1396C18.4825 33.3944 15.6817 31.4163 10.7738 31.4163C8.94611 31.4163 7.11912 31.4784 5.1004 31.4784C3.81778 31.4784 2.28023 31.4163 0.641407 31.4163H0.189714C0.812351 31.7219 2.75926 31.1813 2.75926 33.3387V51.0886C2.75926 53.466 0.389348 52.5662 0.0424805 53.1383H7.43943C16.3768 53.1383 19.7198 51.6778 19.7198 47.0195C19.7198 42.5511 13.864 41.4757 11.7965 41.8313H11.7957ZM9.39567 31.6484C12.1541 31.6484 13.9509 33.8172 13.9509 36.9573C13.9509 41.0179 8.3213 43.1053 7.44013 43.4074V31.6484H9.39567ZM10.2524 52.9454C9.8953 52.9751 9.53589 52.9309 9.19676 52.8157C8.85764 52.7005 8.54616 52.5168 8.28193 52.276C8.01771 52.0353 7.80643 51.7428 7.66144 51.4169C7.51645 51.091 7.44086 50.7388 7.43943 50.3824V43.8066C11.7483 41.812 14.8465 41.5328 14.8465 47.433C14.8465 50.9573 13.1387 52.9454 10.2503 52.9454" fill="white"/>
<path d="M82.4461 25.3375V18.5125C82.5015 17.8096 82.7105 17.1272 83.0586 16.5129L83.0823 16.4722C83.0825 16.4692 83.0832 16.4662 83.0845 16.4635C83.0859 16.4608 83.0879 16.4584 83.0902 16.4565C83.0918 16.4474 83.096 16.4389 83.1024 16.4322C83.3291 16.004 83.6406 15.6257 84.0181 15.3203C84.0313 15.3075 84.0463 15.2967 84.0626 15.2882C84.0988 15.2604 84.1364 15.2347 84.1753 15.211C84.2163 15.1867 84.2572 15.1639 84.2982 15.1396C84.7852 14.8922 85.3264 14.7693 85.8731 14.7817C86.4199 14.7942 86.9549 14.9417 87.43 15.211C87.7621 15.3603 88.083 15.5331 88.3902 15.7281V11.7475C88.3902 11.7475 84.301 11.0547 82.4453 17.532V12.1609C80.7073 13.1726 79.3949 13.9208 78.5077 14.4055C78.4021 14.4619 78.3001 14.5183 78.2032 14.5712C77.964 14.7004 77.7328 14.8204 77.5224 14.9282C77.4505 14.9596 77.3888 14.9997 77.3241 15.0296C76.9593 15.2096 76.6355 15.3596 76.364 15.476L77.5799 16.9107C77.8022 17.1552 77.9776 17.4382 78.0976 17.7455C78.1677 17.9977 78.2031 18.2581 78.2032 18.5197C78.2075 18.5754 78.2111 18.636 78.2111 18.696V25.3375C78.2111 27.8485 76.1407 26.9458 75.8857 27.5385H84.7707C84.5157 26.9458 82.4446 27.8485 82.4446 25.3375" fill="white"/>
<path d="M34.435 16.038C34.435 15.8952 34.435 15.7145 34.4256 15.5824C34.2461 12.8758 32.8134 11.8782 30.3487 11.8782C29.8888 11.8778 29.4293 11.9077 28.9734 11.9674C28.8226 11.9838 28.6675 12.0031 28.5167 12.0281C27.8619 12.1346 27.2154 12.2867 26.582 12.4831C24.4124 13.1529 22.4885 14.3048 21.7553 15.5788L25.2325 17.4856C25.2692 17.4142 25.3044 17.347 25.3424 17.2713C25.5873 16.7472 25.5808 16.1366 25.9098 15.1446C26.4577 13.4893 27.5005 12.1145 28.8542 12.1145H28.8951C28.8994 12.1145 28.9037 12.1145 28.9037 12.1181C29.1242 12.0983 29.3456 12.146 29.5381 12.2547C29.7306 12.3634 29.8851 12.5281 29.981 12.7266C30.1293 13.0764 30.1963 13.455 30.177 13.8342V17.9319C28.266 18.801 26.6545 19.533 25.9162 19.8672C23.7762 20.7513 22.4907 21.4912 21.7761 22.301C21.6096 22.4837 21.465 22.685 21.3452 22.9009C21.0764 23.4286 20.9458 24.0151 20.9653 24.6062C20.9653 26.9629 22.6587 27.7056 24.4174 27.7056C25.0035 27.7077 25.5876 27.6358 26.1554 27.4914C27.6342 27.0705 29.0054 26.34 30.177 25.349C30.3311 26.0181 30.681 26.6269 31.1825 27.0986C31.8089 27.5573 32.5819 27.7733 33.357 27.7063C35.5933 27.7063 37.4203 25.921 37.4203 25.414C37.4208 25.3977 37.4194 25.3814 37.416 25.3654C37.1917 25.7136 36.9181 26.0279 36.6037 26.2988C36.5061 26.388 36.4242 26.453 36.3797 26.493C36.3695 26.5023 36.3584 26.5106 36.3467 26.518L36.338 26.5266C36.037 26.7944 35.6527 26.9515 35.2493 26.9715C34.71 26.9715 34.4048 26.6672 34.4048 26.031L34.4371 16.7329C35.5344 16.233 37.8979 15.2168 37.8979 15.2168L39.0383 16.6615C39.2621 16.9081 39.439 17.1932 39.5604 17.5027C39.6301 17.7564 39.6656 18.0181 39.666 18.2811L39.7033 25.249C39.7033 27.7763 37.6207 26.8679 37.3621 27.4628H46.3096C46.0532 26.8665 43.9684 27.7742 43.9684 25.249L43.9375 15.8223V14.6348C43.9375 14.6348 46.9258 12.9337 48.0619 12.9337C49.4924 12.9337 49.896 14.4276 49.896 15.9159L49.929 25.2447C49.929 27.7721 47.8464 26.8637 47.5872 27.4585H56.5404C56.2833 26.8629 54.1978 27.7699 54.1978 25.2447L54.164 15.7138C54.164 13.0879 52.4009 11.8746 50.2673 11.8746C47.8134 11.8746 45.6338 13.0886 43.9382 13.9456V11.8118L34.435 16.038ZM27.038 20.0465C27.8071 19.6066 28.9555 19.1753 30.177 18.6182V22.8073C30.1769 22.9343 30.1689 23.0612 30.1533 23.1873C30.0871 23.8225 29.8204 24.4206 29.3915 24.8958C28.9626 25.3711 28.3934 25.6992 27.7655 25.8331C27.5998 25.8653 27.4315 25.8816 27.2628 25.8817C26.9564 25.9093 26.6488 25.8438 26.3807 25.6939C26.1126 25.5439 25.8965 25.3166 25.7611 25.0419C25.5159 24.4796 25.4043 23.8687 25.4351 23.2566C25.3958 22.6282 25.5233 22.0006 25.8046 21.4366C26.0859 20.8727 26.5112 20.3921 27.038 20.0429" fill="white"/>
<path d="M34.435 41.8621C34.435 41.7192 34.435 41.3993 34.4256 41.2672C34.2461 38.5599 32.8134 37.5629 30.3487 37.5629C29.8888 37.5628 29.4294 37.5924 28.9734 37.6515C28.8226 37.6694 28.6675 37.6879 28.5167 37.7129C27.8619 37.8194 27.2154 37.9714 26.582 38.1678C24.4124 38.8377 22.4885 39.9889 21.7553 41.2629L25.2326 43.1697C25.2692 43.0982 25.3044 43.0318 25.3424 42.9554C25.5873 42.4312 25.5809 41.8206 25.9098 40.8287C26.4577 39.1733 27.5005 37.7979 28.8542 37.7979H28.8951C28.8994 37.7979 28.9037 37.7979 28.9037 37.8029C29.1243 37.7831 29.3456 37.8308 29.5381 37.9395C29.7306 38.0482 29.8851 38.2129 29.981 38.4113C30.1293 38.7609 30.1963 39.1393 30.177 39.5182V43.616C28.266 44.4858 26.6545 45.2178 25.9163 45.552C23.7762 46.4361 22.4907 47.176 21.7761 47.9851C21.6098 48.1682 21.4652 48.3697 21.3452 48.5857C21.0764 49.1131 20.9458 49.6994 20.9653 50.2903C20.9653 52.647 22.6587 53.3904 24.4174 53.3904C25.0035 53.3925 25.5876 53.3205 26.1554 53.1761C27.6342 52.7553 29.0054 52.0248 30.177 51.0337C30.3313 51.7028 30.6811 52.3115 31.1825 52.7834C31.8089 53.2421 32.5819 53.4581 33.357 53.3911C35.5933 53.3911 37.4203 51.6058 37.4203 51.0987C37.4209 51.0824 37.4194 51.0661 37.416 51.0502C37.1923 51.397 36.9203 51.7106 36.6081 51.9814C36.5104 52.0707 36.4285 52.1349 36.384 52.1756C36.3739 52.1847 36.3628 52.1926 36.351 52.1992C36.3486 52.2025 36.3457 52.2055 36.3424 52.2078C36.0418 52.4765 35.6573 52.6341 35.2536 52.6541C34.7143 52.6541 34.4091 52.3499 34.4091 51.7129L34.4414 42.5319L37.7111 41.1922C37.7111 41.1922 38.7237 42.112 39.1072 42.5241C39.3402 42.7603 39.5176 43.0449 39.6265 43.3575C39.696 43.6097 39.7315 43.87 39.732 44.1316C39.7363 44.1873 39.7392 44.2487 39.7392 44.3094V50.9509C39.7392 53.4604 37.6688 52.5585 37.4138 53.1505H46.2995C46.0446 52.5585 43.9734 53.4611 43.9734 50.9509V44.1259C44.029 43.4231 44.2378 42.7408 44.5853 42.1263L44.609 42.0856C44.6094 42.0793 44.6122 42.0734 44.6169 42.0692C44.6187 42.0602 44.6232 42.052 44.6298 42.0456C44.8556 41.6172 45.1669 41.2391 45.5447 40.9344C45.5583 40.9211 45.5738 40.91 45.5907 40.9015C45.6265 40.8735 45.6642 40.848 45.7035 40.8251C45.7444 40.8016 45.7846 40.7766 45.8248 40.7537C46.3118 40.506 46.8531 40.3828 47.3999 40.3953C47.9467 40.4078 48.4817 40.5555 48.9567 40.8251C49.2887 40.9741 49.6095 41.1464 49.9169 41.3407V37.3601C49.9169 37.3601 45.8292 36.6674 43.9727 43.1446V37.7729L34.435 41.8621ZM27.038 45.7313C27.8071 45.2913 28.9555 44.86 30.177 44.303V48.4914C30.1768 48.6184 30.1689 48.7453 30.1533 48.8713C30.0871 49.5066 29.8204 50.1046 29.3915 50.5799C28.9626 51.0552 28.3934 51.3833 27.7655 51.5172C27.5998 51.5494 27.4315 51.5657 27.2628 51.5658C26.9564 51.5932 26.6489 51.5276 26.3808 51.3777C26.1127 51.2277 25.8967 51.0005 25.7611 50.726C25.5161 50.1636 25.4045 49.5527 25.4351 48.9406C25.3958 48.3123 25.5233 47.6847 25.8046 47.1207C26.0859 46.5568 26.5112 46.0761 27.038 45.727" fill="white"/>
<path d="M52.3762 49.107C52.3762 51.7172 53.8549 53.3918 56.78 53.3918C60.5144 53.3918 61.8573 50.7495 61.8573 50.2446C61.8573 50.0797 61.6928 50.5917 61.6253 50.7066C61.4914 50.9627 61.3222 51.199 61.1226 51.4086C60.8462 51.7653 60.4883 52.0515 60.0785 52.2433C59.6688 52.4352 59.219 52.5273 58.7664 52.512C57.5189 52.512 56.6119 51.7107 56.6119 49.6361L56.5932 38.6648L59.4658 38.5613H61.2347V38.2892L56.5946 38.1228L56.6133 32.1912C56.581 32.2112 56.548 32.2319 56.5164 32.2476C54.8287 33.2297 53.5494 33.9586 52.6786 34.4343C52.573 34.49 52.471 34.5464 52.3741 34.5992C52.0588 34.7685 51.7629 34.922 51.4951 35.0577C51.1303 35.2398 50.8056 35.3884 50.5342 35.5055L51.75 36.9402C51.9733 37.1842 52.1491 37.4673 52.2685 37.775C52.2721 37.7835 52.2747 37.7924 52.2764 37.8015C52.3399 38.0447 52.3725 38.2949 52.3733 38.5463L52.3762 49.107Z" fill="white"/>
<path d="M73.0023 2.83142C71.2472 3.85026 69.9209 4.60605 69.0237 5.0988C68.9189 5.15522 68.817 5.21092 68.715 5.26448C68.3968 5.43302 68.0966 5.58729 67.8288 5.72869C67.4587 5.91008 67.1348 6.05956 66.8571 6.17716L68.0851 7.62758C68.3017 7.87982 68.4783 8.1635 68.6086 8.46882C68.7052 8.77994 68.7454 9.1057 68.7272 9.4308V12.4209C67.7026 12.0489 66.6185 11.8657 65.5278 11.8803C64.3572 11.8475 63.1918 12.0487 62.1008 12.472C61.0098 12.8953 60.0154 13.532 59.1764 14.3445C58.3374 15.1569 57.6709 16.1286 57.2165 17.2019C56.762 18.2751 56.5289 19.4282 56.5308 20.5928C56.5308 25.1868 59.7898 27.757 62.7119 27.757C63.8443 27.7889 64.9689 27.5616 65.999 27.0928C67.0291 26.6241 67.9372 25.9263 68.6532 25.0533H68.725V27.5063H75.3737C75.365 27.4906 75.3571 27.4742 75.3492 27.4621C75.2869 27.3822 75.1976 27.3274 75.0979 27.3078C74.4551 27.1221 73.0253 27.3856 73.0253 25.2882L73.0023 2.83142ZM65.4316 12.4859C67.4668 12.4859 68.7272 13.7756 68.7272 15.933V24.7476C68.3119 25.2047 67.8028 25.5679 67.2342 25.8125C66.6657 26.0572 66.051 26.1777 65.4316 26.1659C63.1881 26.1659 61.0135 23.0951 61.0135 19.3766C61.0135 14.584 62.9152 12.4852 65.4316 12.4852" fill="white"/>
<path d="M91.5618 25.2883C91.5618 27.8107 89.1237 26.9394 88.8228 27.5343H98.5558C98.2542 26.9394 95.8168 27.8464 95.8168 25.3205V11.9846H95.8132C95.8132 11.9846 95.8082 11.9846 95.8082 11.9889C94.0621 13.0006 92.7455 13.7509 91.8583 14.2399C91.7528 14.2956 91.6508 14.3527 91.5532 14.4056C91.2357 14.5762 90.9384 14.729 90.6699 14.8676C90.3036 15.0497 89.9783 15.1989 89.7054 15.3161L90.9262 16.7579C91.1411 16.9969 91.3173 17.2677 91.4483 17.5606C91.7219 18.2597 91.5653 22.631 91.5653 25.289" fill="white"/>
<path d="M93.6902 10.0807C94.1636 10.0805 94.6263 9.9408 95.0198 9.67917C95.4134 9.41754 95.7201 9.04574 95.9011 8.6108C96.0822 8.17586 96.1294 7.69728 96.037 7.23561C95.9446 6.77394 95.7166 6.34993 95.3818 6.01712C95.047 5.68431 94.6204 5.45766 94.1562 5.36588C93.6919 5.27409 93.2107 5.32126 92.7733 5.50143C92.336 5.68161 91.9622 5.9867 91.6992 6.37811C91.4363 6.76952 91.2959 7.22969 91.2959 7.70043C91.2987 8.33096 91.5519 8.93485 92.0004 9.38064C92.4488 9.82643 93.0561 10.078 93.6902 10.0807Z" fill="white"/>
<path d="M108.562 37.5764C107.977 34.9627 105.474 32.1689 100.204 32.1689C95.7598 32.1689 88.9747 35.8632 85.5376 37.9221L80.9328 40.3958C79.9614 40.8529 78.9899 41.3102 78.0185 41.7677C78.0185 41.7677 76.0372 37.7685 71.6873 37.7685C70.7261 37.7595 69.8004 38.1294 69.1126 38.7971C68.4248 39.4649 68.0308 40.3763 68.0168 41.3321C67.9864 41.8135 68.0564 42.2959 68.2221 42.7493C68.3879 43.2026 68.6459 43.617 68.9801 43.9666C69.3144 44.3162 69.7175 44.5934 70.1644 44.7809C70.6113 44.9684 71.0924 45.0622 71.5774 45.0563C72.4893 45.0073 73.3796 44.7617 74.1865 44.3365C74.2059 44.7085 74.2173 45.092 74.2173 45.5048C74.2173 51.1972 72.3365 53.3089 70.1691 53.3089C68.0018 53.3089 66.3629 51.1972 66.3629 45.5048C66.3629 39.8124 68.1224 37.7121 70.2898 37.7078V37.5921C65.1435 37.5921 61.5527 41.2307 61.5527 45.5062C61.5527 49.7818 65.1435 53.4232 70.2934 53.4232C75.4432 53.4232 79.029 49.7811 79.029 45.5062C79.0264 44.4201 78.7852 43.3477 78.3223 42.364C79.0405 42.015 79.761 41.6653 80.484 41.3149L81.3586 42.344C81.5716 42.5991 81.7474 42.8828 81.8807 43.1867C82.0139 44.2271 82.0562 45.277 82.0072 46.3246C82.0072 47.5479 82.0222 50.9308 82.0222 50.9308C82.0222 53.4603 79.9396 52.5498 79.6789 53.1446H88.6263C88.3714 52.5483 86.2844 53.4589 86.2844 50.9308L86.2565 41.5042V40.3616C86.2565 40.3616 89.2727 38.6098 90.2321 38.6098C91.5622 38.6098 92.2121 40.0566 92.2121 41.6049L92.248 50.9323C92.248 53.4618 90.1611 52.5512 89.9068 53.1461H98.8579C98.6015 52.5498 96.5153 53.4603 96.5153 50.9323L96.4822 41.4028C96.4822 38.7762 94.7213 37.5629 92.5855 37.5629C90.3513 37.5629 88.9646 38.0499 86.2565 39.6703V38.092C89.779 36.021 96.1195 32.6724 100.205 32.6724C105.175 32.6724 107.525 35.2619 108.069 37.685C108.344 38.9952 108.152 40.3598 107.526 41.5448C106.9 42.7297 105.879 43.6611 104.638 44.1793C104.585 44.2024 104.541 44.2431 104.514 44.2946C104.487 44.3461 104.479 44.4053 104.491 44.4621C104.503 44.519 104.534 44.57 104.579 44.6065C104.624 44.6431 104.681 44.663 104.739 44.6628C104.779 44.6625 104.818 44.6527 104.852 44.6343C106.199 44.0687 107.305 43.0547 107.982 41.7663C108.659 40.478 108.863 38.9956 108.561 37.5735L108.562 37.5764ZM71.6097 44.4057C71.2111 44.4147 70.8149 44.341 70.4466 44.1891C70.0783 44.0371 69.7459 43.8105 69.4706 43.5236C69.1954 43.2366 68.9834 42.8957 68.8482 42.5227C68.713 42.1496 68.6575 41.7526 68.6854 41.3571C68.6854 40.1573 69.6787 38.0977 71.5035 38.0977C73.1919 38.0977 74.137 41.1421 74.137 43.623C73.378 44.0998 72.5067 44.3707 71.6097 44.4086" fill="white"/>
<path d="M114.692 3.68343C117.493 2.29229 121.102 0.898274 124.616 0.898274C130.026 0.898274 134.419 2.12232 137.321 4.43684C138.453 5.2876 139.376 6.38435 140.018 7.6435C140.66 8.90264 141.004 10.2909 141.025 11.7025C141.025 11.9946 141.007 12.2802 140.98 12.5594C139.704 13.0666 138.595 13.9151 137.774 15.0108C136.954 16.1066 136.454 17.4067 136.331 18.7674C135.751 18.959 135.146 19.0698 134.535 19.0967C134.432 17.7539 133.953 16.4669 133.151 15.3814C132.35 14.2959 131.258 13.4554 130.001 12.9551L129.825 12.8737C129.273 12.6388 128.703 12.4494 128.12 12.3074C128.315 11.3033 128.864 10.4016 129.67 9.76595C130.475 9.13026 131.483 8.80261 132.51 8.84237V8.7895C132.578 8.7895 132.642 8.76286 132.69 8.71545C132.738 8.66804 132.765 8.60374 132.765 8.53669C132.765 8.46965 132.738 8.40535 132.69 8.35794C132.642 8.31053 132.578 8.28389 132.51 8.28389C131.348 8.23773 130.207 8.60367 129.291 9.31639C128.374 10.0291 127.742 11.0423 127.508 12.1753C127.214 12.121 126.933 12.0767 126.672 12.0503L126.486 12.0346C126.266 12.016 126.06 12.0067 125.875 12.0067C120.756 12.0067 117.185 15.6259 117.185 19.8794C117.171 21.3675 117.599 22.8267 118.415 24.0741C119.231 25.3216 120.399 26.3019 121.773 26.8922C119.54 27.035 116.594 27.7421 116.594 31.1314C116.594 33.533 119.401 36.5252 124.909 36.5252C129.931 36.5252 133.485 38.1114 134.916 40.9879C135.295 41.6862 135.507 42.4617 135.537 43.2546C135.537 48.5435 131.167 52.2106 125.88 52.2106C119.752 52.2106 116.461 48.2628 115.975 44.3915H115.971C115.963 44.3313 115.934 44.2759 115.889 44.2355C115.843 44.1952 115.784 44.1727 115.724 44.1722C115.656 44.1722 115.591 44.1989 115.543 44.2463C115.496 44.2936 115.469 44.3579 115.469 44.4251C115.47 44.4345 115.472 44.4439 115.475 44.4529H115.469C115.989 48.5985 119.368 52.8369 125.882 52.8369C133.457 52.8369 137.282 45.9669 137.282 41.8577C137.282 32.3904 129.288 32.1969 123.452 32.0555C119.763 31.9662 117.5 31.8312 117.5 30.2387C117.498 29.9702 117.547 29.7036 117.644 29.4531L117.632 29.4467L117.645 29.4524C118.34 27.6849 121.581 27.4585 123.554 27.4885C124.317 27.6661 125.099 27.7561 125.883 27.757C131.002 27.757 134.572 24.1328 134.572 19.8808C134.572 19.828 134.567 19.7787 134.566 19.7265C135.148 19.6984 135.725 19.5991 136.282 19.4309C136.276 19.5573 136.265 19.6809 136.265 19.8094C136.265 24.5584 139.225 27.7678 143.765 27.7678C149.313 27.7678 150.861 23.3536 150.861 22.351C150.863 22.2938 150.844 22.2377 150.807 22.1942C150.769 22.1508 150.716 22.1233 150.659 22.1175C150.357 22.1175 150.389 22.651 149.684 23.4208C149.184 24.0084 148.552 24.4716 147.84 24.7735C147.128 25.0755 146.354 25.2077 145.581 25.1597C142.79 25.1597 140.167 23.153 140.1 19.0738H150.861C150.726 14.4591 147.532 12.0517 143.765 12.0517C143.042 12.0516 142.323 12.1511 141.628 12.3473C141.642 12.1331 141.657 11.9232 141.657 11.7046C141.638 10.1988 141.273 8.71735 140.59 7.37325C139.907 6.02915 138.924 4.85794 137.717 3.94906C134.701 1.54384 130.173 0.272705 124.617 0.272705C121.094 0.272705 117.502 1.61384 114.681 2.9907L114.664 3.00142C113.498 3.57273 112.465 4.14404 111.624 4.63251L110.679 5.13882C110.574 5.19524 110.472 5.25165 110.37 5.3045C110.054 5.47304 109.754 5.62732 109.485 5.76801C109.116 5.95012 108.791 6.09936 108.515 6.21648L109.741 7.66616C109.961 7.91513 110.138 8.19868 110.264 8.50527C110.362 8.81559 110.402 9.14117 110.382 9.46581V12.4538C109.359 12.0816 108.277 11.8984 107.188 11.9132C106.018 11.8804 104.854 12.0813 103.764 12.5041C102.674 12.9269 101.681 13.563 100.843 14.3746C100.004 15.1861 99.3386 16.1568 98.8845 17.229C98.4305 18.3011 98.1974 19.453 98.1992 20.6164C98.1992 25.2069 101.455 27.7735 104.375 27.7735C105.507 27.8058 106.63 27.5791 107.659 27.1109C108.688 26.6427 109.596 25.9456 110.311 25.0733H110.383V27.5242H117.024C117.016 27.5078 117.007 27.4914 117 27.4799C116.938 27.3996 116.849 27.345 116.748 27.3264C116.107 27.1408 114.679 27.4028 114.679 25.3075L114.692 3.68343ZM110.383 24.7627C109.969 25.2194 109.46 25.5823 108.892 25.8269C108.324 26.0714 107.71 26.1919 107.091 26.1802C104.851 26.1802 102.678 23.1094 102.678 19.3959C102.678 14.6112 104.579 12.513 107.091 12.513C109.125 12.513 110.383 13.7985 110.383 15.9566V24.7627ZM140.474 16.0987C140.904 15.3725 141.221 14.5853 141.413 13.7642C141.629 13.3111 141.962 12.9221 142.376 12.6357C142.79 12.3493 143.273 12.1753 143.775 12.131C145.681 12.131 146.791 13.8577 146.827 18.4432H140.124C140.168 17.6529 140.285 16.8683 140.474 16.0994V16.0987ZM128.021 12.9208C128.769 13.635 129.434 14.9918 129.686 17.5334C129.62 17.472 129.549 17.4149 129.487 17.3492C128.508 16.3292 127.967 14.97 127.979 13.5599C127.98 13.3451 127.994 13.1305 128.02 12.9172L128.021 12.9208ZM125.764 27.6407C123.61 27.6407 121.976 25.5396 121.976 19.8765C121.976 14.2134 123.724 12.1252 125.881 12.1202C126.426 12.1036 126.967 12.2308 127.447 12.4887C127.381 12.8421 127.348 13.2006 127.348 13.5599C127.334 15.1325 127.938 16.6483 129.03 17.7855C129.252 18.0111 129.492 18.2181 129.748 18.4047C129.773 18.8639 129.789 19.3516 129.789 19.8794C129.789 25.5425 127.921 27.6435 125.762 27.6435" fill="white"/>
<path d="M17.4737 11.0912C17.3968 11.1085 17.3161 11.0952 17.249 11.0541C17.1819 11.013 17.1337 10.9474 17.1146 10.8713C16.6577 9.38404 15.73 8.08325 14.4696 7.16257C13.2093 6.24189 11.6836 5.75052 10.1198 5.76162C7.71257 5.76162 5.77641 7.01707 5.77641 9.4887C5.77641 14.8226 19.5391 11.8639 19.5391 20.6764C19.5391 25.002 15.7422 28.3177 10.6247 28.3177C7.26876 28.3177 5.67444 26.818 4.35304 26.818C3.03164 26.818 3.29594 27.9242 2.71927 27.9242L2.72641 18.1027C3.0661 18.1027 3.06611 18.5897 3.20112 19.2724C4.01335 23.403 5.72757 28.0799 10.6764 28.0799C14.1335 28.0799 16.0819 25.8425 16.0819 23.3387C16.0819 16.7687 2.52246 19.9887 2.52246 11.9232C2.52246 8.08475 5.91213 5.22388 10.1155 5.22388C11.8158 5.16363 13.4866 5.67658 14.8569 6.67944C16.2271 7.6823 17.2164 9.11622 17.664 10.7485C17.6738 10.7833 17.6765 10.8196 17.6721 10.8555C17.6677 10.8913 17.6561 10.926 17.6382 10.9574C17.6202 10.9888 17.5962 11.0164 17.5675 11.0385C17.5387 11.0606 17.5059 11.0768 17.4708 11.0862" fill="white"/>
<path d="M6.08088 62.8163H4.1828V69.1407H3.31237V62.8163H1.41504V62.0093H6.07943L6.08088 62.8163Z" fill="white"/>
<path d="M11.6724 66.0656V69.1364H10.825V66.1856C10.8511 65.9817 10.8324 65.7746 10.7701 65.5787C10.7078 65.3827 10.6033 65.2026 10.464 65.0508C10.3248 64.8989 10.1539 64.779 9.96339 64.6994C9.77287 64.6197 9.5672 64.5822 9.36065 64.5895C9.15264 64.5814 8.94535 64.6181 8.75291 64.6971C8.56047 64.776 8.38745 64.8953 8.24564 65.0468C8.10382 65.1983 7.99655 65.3786 7.93118 65.5751C7.86582 65.7716 7.84393 65.9798 7.86693 66.1856V69.1364H7.01807V62.0093H7.86693V64.7709C8.04162 64.4653 8.29841 64.2142 8.60853 64.0456C8.91865 63.8769 9.26985 63.7974 9.62281 63.8161C10.723 63.8161 11.6724 64.4981 11.6724 66.0649" fill="white"/>
<path d="M17.7393 66.839H13.4182C13.4644 67.3194 13.6968 67.763 14.0663 68.0759C14.4357 68.3887 14.9132 68.5463 15.3974 68.5151C15.6879 68.5227 15.9769 68.4704 16.246 68.3615C16.5152 68.2526 16.7588 68.0895 16.9615 67.8824L17.3853 68.3109C17.1296 68.6098 16.8098 68.8479 16.4493 69.0077C16.0889 69.1675 15.6971 69.2449 15.3026 69.2343C14.6024 69.2104 13.9383 68.9198 13.4477 68.4224C12.9572 67.925 12.6777 67.2591 12.6673 66.5625C12.6569 65.8659 12.9162 65.192 13.3917 64.6804C13.8672 64.1687 14.5223 63.8585 15.2215 63.814C16.5543 63.814 17.9504 64.7673 17.735 66.8362L17.7393 66.839ZM13.4139 66.1935H16.9874C16.9826 65.9701 16.9331 65.7499 16.8419 65.5458C16.7507 65.3416 16.6195 65.1576 16.456 65.0044C16.2925 64.8512 16.0999 64.7318 15.8896 64.6534C15.6793 64.5749 15.4553 64.5389 15.2308 64.5474C14.7731 64.5365 14.3287 64.7016 13.9902 65.0081C13.6517 65.3147 13.445 65.7392 13.4131 66.1935" fill="white"/>
<path d="M25.5213 66.0656V69.1364H24.6724V66.1856C24.6985 65.9818 24.6799 65.7747 24.6176 65.5788C24.5553 65.3829 24.4509 65.2028 24.3117 65.051C24.1725 64.8992 24.0017 64.7793 23.8113 64.6996C23.6209 64.6199 23.4153 64.5823 23.2088 64.5895C23.0008 64.5814 22.7935 64.6181 22.6011 64.6971C22.4086 64.776 22.2356 64.8953 22.0938 65.0468C21.952 65.1983 21.8447 65.3786 21.7794 65.5751C21.714 65.7716 21.6921 65.9798 21.7151 66.1856V69.1364H20.8662V62.0093H21.7151V64.7709C21.8899 64.4654 22.1467 64.2144 22.4568 64.0458C22.7669 63.8772 23.118 63.7976 23.471 63.8161C24.5712 63.8161 25.5213 64.4981 25.5213 66.0649" fill="white"/>
<path d="M26.4584 66.527C26.4576 65.9901 26.6169 65.465 26.9162 65.0181C27.2156 64.5713 27.6415 64.2228 28.1401 64.0168C28.6387 63.8107 29.1875 63.7564 29.7171 63.8606C30.2468 63.9648 30.7334 64.2229 31.1155 64.6023C31.4976 64.9816 31.758 65.4652 31.8636 65.9917C31.9692 66.5182 31.9155 67.0641 31.709 67.5602C31.5026 68.0563 31.1528 68.4804 30.704 68.7788C30.2551 69.0772 29.7273 69.2364 29.1874 69.2364C28.8267 69.2462 28.4678 69.1829 28.1325 69.0503C27.7972 68.9177 27.4926 68.7185 27.2373 68.465C26.9819 68.2114 26.7812 67.9089 26.6473 67.5757C26.5134 67.2425 26.4491 66.8857 26.4584 66.527ZM31.0618 66.527C31.048 66.1607 30.9261 65.8066 30.7114 65.5087C30.4967 65.2108 30.1986 64.9823 29.8542 64.8516C29.5099 64.7209 29.1345 64.6938 28.7748 64.7737C28.4151 64.8537 28.087 65.037 27.8313 65.301C27.5756 65.565 27.4037 65.8979 27.3368 66.2584C27.27 66.6188 27.3113 66.9908 27.4555 67.3281C27.5998 67.6654 27.8406 67.953 28.1481 68.1552C28.4555 68.3574 28.8159 68.4652 29.1845 68.4652C29.4382 68.4688 29.6899 68.4206 29.9241 68.3236C30.1583 68.2266 30.37 68.0827 30.546 67.901C30.722 67.7193 30.8586 67.5036 30.9473 67.2673C31.036 67.0309 31.075 66.7789 31.0618 66.527Z" fill="white"/>
<path d="M40.641 66.0656V69.1365H39.7928V66.1249C39.7928 65.1716 39.3619 64.5896 38.5217 64.5896C37.6729 64.5896 37.168 65.1716 37.168 66.1249V69.1365H36.3199V66.1249C36.3199 65.1716 35.889 64.5896 35.0487 64.5896C34.1999 64.5896 33.695 65.1716 33.695 66.1249V69.1365H32.8462V63.9168H33.6936V64.7295C33.8463 64.4415 34.0784 64.2027 34.3627 64.041C34.6469 63.8794 34.9716 63.8016 35.2987 63.8168C35.6508 63.7987 35.9998 63.8905 36.2968 64.0795C36.5938 64.2686 36.8238 64.5453 36.9547 64.8709C37.115 64.5396 37.3702 64.2628 37.6882 64.0752C38.0063 63.8877 38.3729 63.7978 38.7422 63.8168C39.8323 63.8168 40.6396 64.5088 40.6396 66.0656" fill="white"/>
<path d="M46.7071 66.839H42.386C42.4322 67.3193 42.6646 67.7628 43.0339 68.0756C43.4031 68.3885 43.8804 68.5461 44.3645 68.5151C44.6551 68.5228 44.9442 68.4705 45.2135 68.3616C45.4828 68.2527 45.7266 68.0895 45.9294 67.8824L46.3531 68.3109C46.0974 68.6098 45.7776 68.8479 45.4172 69.0077C45.0567 69.1675 44.6649 69.2449 44.2705 69.2343C43.5703 69.2102 42.9063 68.9193 42.4159 68.4218C41.9255 67.9244 41.6463 67.2584 41.636 66.5619C41.6258 65.8653 41.8853 65.1915 42.3609 64.68C42.8365 64.1684 43.4916 63.8584 44.1907 63.814C45.5236 63.814 46.9197 64.7673 46.7043 66.8362L46.7071 66.839ZM42.3831 66.1935H45.9559C45.9513 65.9701 45.902 65.7499 45.8109 65.5457C45.7198 65.3415 45.5886 65.1575 45.4252 65.0042C45.2617 64.851 45.0692 64.7316 44.8589 64.6532C44.6485 64.5748 44.4245 64.5388 44.2001 64.5474C43.7423 64.5365 43.298 64.7016 42.9595 65.0081C42.6209 65.3147 42.4143 65.7392 42.3824 66.1935" fill="white"/>
<path d="M49.5863 66.527C49.5855 65.9901 49.7448 65.465 50.0442 65.0181C50.3435 64.5713 50.7694 64.2228 51.268 64.0168C51.7666 63.8107 52.3154 63.7564 52.8451 63.8606C53.3747 63.9648 53.8614 64.2229 54.2434 64.6023C54.6255 64.9816 54.8859 65.4652 54.9915 65.9917C55.0972 66.5182 55.0434 67.0641 54.837 67.5602C54.6306 68.0563 54.2808 68.4804 53.8319 68.7788C53.383 69.0772 52.8552 69.2364 52.3153 69.2364C51.9546 69.2462 51.5957 69.1829 51.2604 69.0503C50.9252 68.9177 50.6205 68.7185 50.3652 68.465C50.1098 68.2114 49.9091 67.9089 49.7752 67.5757C49.6413 67.2425 49.577 66.8857 49.5863 66.527ZM54.1904 66.527C54.1767 66.1605 54.055 65.8062 53.8403 65.5081C53.6256 65.2099 53.3274 64.9812 52.9829 64.8504C52.6384 64.7195 52.2629 64.6924 51.903 64.7722C51.5431 64.8521 51.2148 65.0355 50.9589 65.2995C50.703 65.5636 50.531 65.8966 50.4641 66.2572C50.3972 66.6179 50.4384 66.9901 50.5827 67.3275C50.727 67.665 50.9679 67.9528 51.2755 68.1551C51.5831 68.3573 51.9437 68.4652 52.3125 68.4652C52.5662 68.4688 52.8179 68.4206 53.0521 68.3236C53.2863 68.2266 53.4981 68.0828 53.6741 67.9011C53.8502 67.7194 53.9868 67.5037 54.0757 67.2673C54.1645 67.0309 54.2035 66.7789 54.1904 66.527Z" fill="white"/>
<path d="M57.083 63.4455V63.9175H58.5272V64.6102H57.083V69.1365H56.2255V64.6102H55.6201V63.9175H56.2255V63.3462C56.1997 63.1436 56.2197 62.9378 56.2843 62.7439C56.3489 62.55 56.4563 62.3729 56.5986 62.2256C56.741 62.0784 56.9147 61.9647 57.107 61.8929C57.2993 61.8212 57.5053 61.7931 57.7099 61.8108C57.9957 61.8032 58.2783 61.8722 58.5279 62.0108V62.6842C58.3286 62.5924 58.112 62.5437 57.8924 62.5414C57.4069 62.5414 57.0844 62.782 57.0844 63.4447" fill="white"/>
<path d="M61.4724 67.5018L62.1906 67.1704C62.2845 67.5408 62.503 67.8681 62.8097 68.0982C63.1163 68.3282 63.4928 68.4471 63.8768 68.4351C64.0523 68.4564 64.2303 68.4407 64.3994 68.3891C64.5684 68.3374 64.7247 68.2511 64.8579 68.1355C64.9912 68.02 65.0986 67.8778 65.173 67.7183C65.2475 67.5588 65.2874 67.3855 65.2901 67.2097C65.2901 66.477 64.7644 66.1556 63.9256 65.8243L63.4516 65.6436C62.4002 65.2222 61.7654 64.6395 61.7654 63.7154C61.7709 63.4589 61.8298 63.2062 61.9384 62.9734C62.047 62.7406 62.203 62.5327 62.3965 62.3629C62.59 62.193 62.8167 62.0649 63.0625 61.9866C63.3082 61.9083 63.5677 61.8815 63.8244 61.9079C64.2972 61.8921 64.7626 62.0281 65.1516 62.2957C65.5407 62.5634 65.8327 62.9485 65.9845 63.3941L65.3188 63.7347C65.2147 63.4294 65.0159 63.1647 64.751 62.9789C64.4861 62.7931 64.1686 62.6956 63.8444 62.7006C63.6959 62.6813 63.545 62.6931 63.4014 62.7353C63.2577 62.7775 63.1245 62.8492 63.0104 62.9456C62.8963 63.0421 62.8037 63.1612 62.7387 63.2954C62.6737 63.4296 62.6377 63.5758 62.6329 63.7247C62.6329 64.2246 62.936 64.6181 63.7819 64.9487L64.2667 65.1394C65.4373 65.6014 66.1749 66.1228 66.1749 67.2176C66.1677 67.504 66.1011 67.7858 65.9794 68.0454C65.8576 68.305 65.6832 68.5368 65.4671 68.7263C65.251 68.9158 64.9979 69.0588 64.7236 69.1465C64.4494 69.2341 64.1598 69.2645 63.8732 69.2357C63.3332 69.2644 62.7996 69.1075 62.3621 68.7914C61.9246 68.4753 61.6097 68.0192 61.4702 67.4996" fill="white"/>
<path d="M71.77 66.0656V69.1364H70.9219V66.1856C70.9479 65.9817 70.9291 65.7747 70.8667 65.5788C70.8044 65.3829 70.6999 65.2028 70.5606 65.051C70.4213 64.8992 70.2506 64.7793 70.0601 64.6996C69.8697 64.6199 69.6641 64.5824 69.4576 64.5895C69.2496 64.5816 69.0424 64.6183 68.85 64.6973C68.6576 64.7762 68.4846 64.8956 68.3429 65.0471C68.2011 65.1986 68.0938 65.3787 68.0284 65.5752C67.963 65.7717 67.9409 65.9799 67.9638 66.1856V69.1364H67.1157V62.0093H67.9638V64.7709C68.1388 64.4655 68.3958 64.2146 68.7061 64.0463C69.0163 63.8779 69.3675 63.7987 69.7204 63.8175C70.8214 63.8175 71.77 64.4995 71.77 66.0663" fill="white"/>
<path d="M72.707 66.5269C72.6843 66.1777 72.7342 65.8276 72.8535 65.4984C72.9728 65.1692 73.1589 64.8679 73.4003 64.6134C73.6418 64.3588 73.9334 64.1564 74.2569 64.0187C74.5804 63.8811 74.9289 63.8111 75.2808 63.8132C75.6778 63.7949 76.0721 63.8866 76.4198 64.078C76.7674 64.2694 77.0548 64.553 77.25 64.8973H77.2802V63.9139H78.1283V69.1335H77.2802V68.1509H77.25C77.0548 68.4951 76.7674 68.7786 76.4197 68.9699C76.072 69.1611 75.6777 69.2527 75.2808 69.2342C74.9293 69.2363 74.5812 69.1665 74.258 69.0291C73.9347 68.8917 73.6434 68.6896 73.402 68.4355C73.1606 68.1814 72.9744 67.8807 72.8548 67.552C72.7352 67.2233 72.6849 66.8736 72.707 66.5248V66.5269ZM77.3111 66.5248C77.2974 66.1588 77.1759 65.8048 76.9616 65.5069C76.7474 65.209 76.4498 64.9802 76.1059 64.8491C75.762 64.718 75.3869 64.6902 75.0273 64.7692C74.6677 64.8483 74.3393 65.0307 74.0831 65.2938C73.8268 65.5569 73.6538 65.889 73.5858 66.249C73.5178 66.6089 73.5576 66.9808 73.7004 67.3185C73.8432 67.6561 74.0826 67.9446 74.3888 68.1481C74.6951 68.3515 75.0547 68.461 75.423 68.4629C75.678 68.4695 75.9315 68.4234 76.1676 68.3275C76.4038 68.2316 76.6173 68.088 76.7947 67.9059C76.9722 67.7237 77.1097 67.5069 77.1986 67.2692C77.2875 67.0314 77.3257 66.778 77.3111 66.5248Z" fill="white"/>
<path d="M82.1553 63.8596V64.653C82.0591 64.6318 81.9608 64.622 81.8623 64.6237C81.6217 64.6253 81.384 64.6771 81.1647 64.7759C80.9455 64.8746 80.7495 65.0181 80.5896 65.197C80.4297 65.3759 80.3094 65.5863 80.2366 65.8144C80.1637 66.0425 80.1399 66.2833 80.1667 66.5212V69.1407H79.3179V63.9203H80.1667V65.215C80.2345 64.8209 80.4415 64.4638 80.7505 64.208C81.0595 63.9521 81.4502 63.8144 81.8523 63.8196C81.9551 63.8157 82.0578 63.8292 82.156 63.8596" fill="white"/>
<path d="M88.5139 66.5269C88.5368 66.8759 88.487 67.2258 88.3678 67.5549C88.2486 67.8839 88.0625 68.185 87.821 68.4392C87.5796 68.6935 87.2879 68.8955 86.9644 69.0327C86.6409 69.1698 86.2924 69.2392 85.9407 69.2364C85.5438 69.255 85.1494 69.1636 84.8017 68.9723C84.4539 68.781 84.1665 68.4974 83.9715 68.153H83.9413V71.0446H83.0933V63.9168H83.9413V64.9001H83.9715C84.1665 64.5557 84.4539 64.2719 84.8016 64.0805C85.1493 63.8891 85.5437 63.7975 85.9407 63.8161C86.2928 63.8133 86.6416 63.8828 86.9653 64.0203C87.2891 64.1577 87.5809 64.3602 87.8224 64.6149C88.064 64.8696 88.25 65.1711 88.3689 65.5006C88.4879 65.8301 88.5373 66.1805 88.5139 66.5298V66.5269ZM87.6664 66.5298C87.6517 66.1644 87.5293 65.8113 87.3143 65.5145C87.0994 65.2178 86.8013 64.9905 86.4574 64.861C86.1135 64.7315 85.7388 64.7054 85.3801 64.7861C85.0214 64.8667 84.6945 65.0506 84.4401 65.3146C84.1856 65.5787 84.0149 65.9114 83.9492 66.2713C83.8836 66.6311 83.9258 67.0022 84.0707 67.3384C84.2156 67.6745 84.4568 67.9608 84.7642 68.1617C85.0715 68.3626 85.4314 68.4691 85.7992 68.4679C86.0531 68.474 86.3054 68.4273 86.5402 68.331C86.7749 68.2346 86.9869 68.0906 87.1626 67.9083C87.3383 67.7259 87.4738 67.5092 87.5606 67.2718C87.6473 67.0345 87.6833 66.7818 87.6664 66.5298Z" fill="white"/>
<path d="M94.106 66.0656V69.1364H93.2578V66.1856C93.284 65.9817 93.2652 65.7746 93.2029 65.5787C93.1406 65.3827 93.0362 65.2026 92.8969 65.0508C92.7576 64.8989 92.5868 64.779 92.3962 64.6994C92.2057 64.6197 92.0001 64.5822 91.7935 64.5895C91.5856 64.5816 91.3783 64.6183 91.1859 64.6973C90.9936 64.7762 90.8206 64.8956 90.6788 65.0471C90.537 65.1986 90.4297 65.3787 90.3643 65.5752C90.2989 65.7717 90.2769 65.9799 90.2997 66.1856V69.1364H89.4517V62.0093H90.2997V64.7709C90.4747 64.4651 90.7319 64.2138 91.0424 64.0452C91.3529 63.8765 91.7045 63.7972 92.0578 63.8161C93.1587 63.8161 94.1074 64.4981 94.1074 66.0649" fill="white"/>
<path d="M95.0439 66.5269C95.0212 66.1777 95.0711 65.8276 95.1904 65.4984C95.3097 65.1692 95.4958 64.8679 95.7372 64.6134C95.9787 64.3588 96.2703 64.1563 96.5938 64.0187C96.9173 63.881 97.2659 63.8111 97.6177 63.8132C98.0148 63.795 98.4092 63.8867 98.7569 64.0781C99.1047 64.2695 99.3923 64.553 99.5877 64.8972H99.6171V63.9139H100.465V69.1335H99.6171V68.1509H99.5877C99.3922 68.495 99.1046 68.7784 98.7569 68.9697C98.4091 69.161 98.0147 69.2525 97.6177 69.2342C97.2662 69.2363 96.9181 69.1664 96.5949 69.029C96.2717 68.8916 95.9803 68.6896 95.7389 68.4355C95.4975 68.1814 95.3113 67.8807 95.1917 67.552C95.0721 67.2233 95.0218 66.8736 95.0439 66.5248V66.5269ZM99.648 66.5248C99.6343 66.1587 99.5128 65.8048 99.2985 65.5069C99.0843 65.209 98.7867 64.9802 98.4428 64.8491C98.0989 64.7179 97.7239 64.6902 97.3642 64.7692C97.0046 64.8483 96.6762 65.0307 96.42 65.2938C96.1637 65.5568 95.9908 65.889 95.9228 66.2489C95.8548 66.6089 95.8947 66.9808 96.0374 67.3184C96.1802 67.6561 96.4195 67.9446 96.7258 68.148C97.032 68.3515 97.3916 68.461 97.7599 68.4629C98.0149 68.4695 98.2685 68.4233 98.5046 68.3274C98.7407 68.2316 98.9542 68.088 99.1316 67.9058C99.3091 67.7237 99.4466 67.5069 99.5355 67.2691C99.6244 67.0314 99.6627 66.7779 99.648 66.5248Z" fill="white"/>
<path d="M109.45 66.0656V69.1365H108.601V66.1249C108.601 65.1715 108.17 64.5895 107.33 64.5895C106.482 64.5895 105.977 65.1715 105.977 66.1249V69.1365H105.128V66.1249C105.128 65.1715 104.697 64.5895 103.857 64.5895C103.017 64.5895 102.504 65.1715 102.504 66.1249V69.1365H101.656V63.9168H102.504V64.7295C102.657 64.4416 102.889 64.2028 103.173 64.0412C103.457 63.8796 103.781 63.8018 104.108 63.8168C104.46 63.7987 104.809 63.8907 105.106 64.0797C105.403 64.2687 105.633 64.5454 105.764 64.8709C105.925 64.5396 106.18 64.2628 106.498 64.0753C106.815 63.8878 107.182 63.7978 107.551 63.8168C108.641 63.8168 109.449 64.5088 109.449 66.0656" fill="white"/>
<path d="M112.495 62.0093H113.414L115.08 67.6117L116.887 62.0093H117.583L119.39 67.6117L121.055 62.0093H121.975L119.794 69.1371H119.097L117.23 63.5061L115.372 69.1371H114.675L112.495 62.0093Z" fill="white"/>
<path d="M122.862 62.01H123.711V62.7955H122.862V62.01ZM122.862 63.9175H123.711V69.1378H122.862V63.9175Z" fill="white"/>
<path d="M129.554 66.0656V69.1364H128.706V66.1856C128.732 65.9818 128.713 65.7747 128.651 65.5788C128.588 65.3829 128.484 65.2028 128.345 65.051C128.206 64.8992 128.035 64.7793 127.845 64.6996C127.654 64.6199 127.448 64.5823 127.242 64.5895C127.034 64.5815 126.827 64.6183 126.634 64.6973C126.442 64.7762 126.269 64.8956 126.127 65.0471C125.985 65.1986 125.878 65.3787 125.813 65.5752C125.747 65.7716 125.725 65.9799 125.748 66.1856V69.1364H124.899V63.9167H125.748V64.7694C125.923 64.4641 126.18 64.2133 126.49 64.0449C126.8 63.8765 127.151 63.7973 127.504 63.8161C128.605 63.8161 129.554 64.498 129.554 66.0649" fill="white"/>
<path d="M135.622 66.839H131.301C131.347 67.3194 131.579 67.763 131.949 68.0759C132.318 68.3887 132.796 68.5462 133.28 68.5151C133.57 68.5226 133.859 68.4703 134.128 68.3615C134.398 68.2526 134.641 68.0894 134.844 67.8824L135.268 68.3109C135.012 68.6098 134.692 68.848 134.332 69.0078C133.971 69.1676 133.579 69.245 133.185 69.2343C132.485 69.2104 131.821 68.9197 131.33 68.4224C130.84 67.925 130.56 67.2591 130.55 66.5625C130.539 65.8659 130.799 65.192 131.274 64.6804C131.749 64.1687 132.405 63.8585 133.104 63.814C134.437 63.814 135.833 64.7673 135.617 66.8362L135.622 66.839ZM131.296 66.1935H134.87C134.866 65.9701 134.816 65.7498 134.725 65.5457C134.634 65.3415 134.503 65.1574 134.339 65.0042C134.176 64.8509 133.983 64.7316 133.773 64.6532C133.562 64.5748 133.338 64.5388 133.114 64.5474C132.656 64.5365 132.212 64.7016 131.873 65.0081C131.535 65.3147 131.328 65.7392 131.296 66.1935Z" fill="white"/>
</svg>
