<svg width="211" height="100" viewBox="0 0 211 100" fill="none" xmlns="http://www.w3.org/2000/svg">
<path d="M16.3689 58.1968C16.3505 58.1993 16.3319 58.1948 16.3167 58.1843C16.3014 58.1738 16.2905 58.1581 16.2862 58.1401C16.2818 58.1221 16.2843 58.1031 16.2932 58.0868C16.302 58.0705 16.3165 58.058 16.3339 58.0518C22.5259 55.7728 25.6799 54.4668 25.6799 50.2268C25.6799 46.3828 21.7799 43.6128 14.9459 43.6128C12.4009 43.6128 9.8569 43.6998 7.0459 43.6998C5.2599 43.6998 3.11891 43.6128 0.836914 43.6128H0.207947C1.07495 44.0408 3.78595 43.2838 3.78595 46.3048V71.1598C3.78595 74.4888 0.48593 73.2288 0.00292969 74.0298H10.3029C22.7479 74.0298 27.4029 71.9848 27.4029 65.4618C27.4029 59.2048 19.2489 57.6988 16.3699 58.1968H16.3689ZM13.0269 43.9378C16.8679 43.9378 19.3699 46.9748 19.3699 51.3718C19.3699 57.0578 11.5309 59.9808 10.3039 60.4038V43.9378H13.0269ZM14.2199 73.7598C13.7226 73.8014 13.2222 73.7395 12.7499 73.5782C12.2777 73.4169 11.844 73.1596 11.4761 72.8224C11.1081 72.4853 10.814 72.0757 10.6121 71.6194C10.4102 71.163 10.3049 70.6698 10.3029 70.1708V60.9628C16.3029 58.1698 20.6169 57.7788 20.6169 66.0408C20.6169 70.9758 18.2389 73.7598 14.2169 73.7598" fill="#2A2B2A"/>
<path d="M114.747 35.1012V25.5442C114.824 24.5599 115.115 23.6043 115.6 22.7442L115.633 22.6872C115.633 22.6829 115.634 22.6787 115.636 22.675C115.638 22.6712 115.641 22.6678 115.644 22.6651C115.646 22.6524 115.652 22.6406 115.661 22.6311C115.977 22.0315 116.41 21.5018 116.936 21.0741C116.954 21.0563 116.975 21.0411 116.998 21.0291C117.048 20.9903 117.101 20.9542 117.155 20.9211C117.212 20.8871 117.269 20.8551 117.326 20.8211C118.004 20.4747 118.758 20.3025 119.519 20.32C120.28 20.3374 121.025 20.544 121.687 20.9211C122.149 21.1302 122.596 21.3722 123.024 21.6451V16.0711C123.024 16.0711 117.33 15.1011 114.746 24.1711V16.6501C112.326 18.0668 110.498 19.1145 109.263 19.7931C109.116 19.8721 108.974 19.9511 108.839 20.0251C108.506 20.2061 108.184 20.3741 107.891 20.5251C107.791 20.5691 107.705 20.6251 107.615 20.6671C107.107 20.9191 106.656 21.1291 106.278 21.2921L107.971 23.3011C108.281 23.6436 108.525 24.0398 108.692 24.4701C108.79 24.8232 108.839 25.1879 108.839 25.5542C108.845 25.6322 108.85 25.7171 108.85 25.8011V35.1012C108.85 38.6172 105.967 37.3531 105.612 38.1831H117.984C117.629 37.3531 114.745 38.6172 114.745 35.1012" fill="#2A2B2A"/>
<path d="M47.893 22.0791C47.893 21.8791 47.893 21.6261 47.88 21.4411C47.63 17.6511 45.635 16.2541 42.203 16.2541C41.5626 16.2537 40.9228 16.2954 40.2879 16.3791C40.0779 16.4021 39.8619 16.4291 39.6519 16.4641C38.7402 16.6132 37.84 16.8261 36.958 17.1011C33.937 18.0391 31.258 19.6521 30.237 21.4361L35.0789 24.1061C35.1299 24.0061 35.179 23.9121 35.232 23.8061C35.573 23.0721 35.5639 22.2171 36.0219 20.8281C36.7849 18.5101 38.237 16.5851 40.122 16.5851H40.1789C40.1849 16.5851 40.1909 16.5851 40.1909 16.5901C40.498 16.5624 40.8062 16.6291 41.0742 16.7814C41.3423 16.9336 41.5575 17.1642 41.6909 17.4421C41.8974 17.932 41.9908 18.4622 41.964 18.9931V24.7311C39.303 25.9481 37.059 26.9731 36.031 27.4411C33.051 28.6791 31.261 29.7151 30.266 30.8491C30.0341 31.105 29.8327 31.3868 29.6659 31.6891C29.2917 32.428 29.1098 33.2493 29.1369 34.0771C29.1369 37.3771 31.4949 38.4171 33.9439 38.4171C34.7601 38.4201 35.5733 38.3193 36.364 38.1171C38.4231 37.5277 40.3325 36.5049 41.964 35.1171C42.1785 36.0541 42.6657 36.9066 43.364 37.5671C44.2363 38.2094 45.3127 38.5119 46.3919 38.4181C49.5059 38.4181 52.0499 35.9181 52.0499 35.2081C52.0507 35.1853 52.0487 35.1625 52.044 35.1401C51.7316 35.6278 51.3506 36.0679 50.9129 36.4471C50.7769 36.5721 50.663 36.6631 50.601 36.7191C50.5867 36.7321 50.5713 36.7438 50.555 36.7541L50.5429 36.7661C50.1238 37.1412 49.5887 37.3611 49.0269 37.3891C48.2759 37.3891 47.851 36.9631 47.851 36.0721L47.896 23.0521C49.424 22.3521 52.7149 20.9291 52.7149 20.9291L54.3029 22.9521C54.6146 23.2975 54.861 23.6967 55.0299 24.1301C55.127 24.4853 55.1765 24.8519 55.177 25.2201L55.229 34.9771C55.229 38.5161 52.329 37.2441 51.969 38.0771H64.4279C64.0709 37.2421 61.1679 38.5131 61.1679 34.9771L61.125 21.7771V20.1141C61.125 20.1141 65.2859 17.7321 66.8679 17.7321C68.8599 17.7321 69.422 19.8241 69.422 21.9081L69.4679 34.9711C69.4679 38.5101 66.5679 37.2381 66.2069 38.0711H78.674C78.316 37.2371 75.4119 38.5071 75.4119 34.9711L75.365 21.6251C75.365 17.9481 72.9099 16.2491 69.9389 16.2491C66.5219 16.2491 63.4869 17.9491 61.1259 19.1491V16.1611L47.893 22.0791ZM37.5929 27.6921C38.6639 27.0761 40.263 26.4721 41.964 25.6921V31.5581C41.9637 31.7359 41.9527 31.9136 41.9309 32.0901C41.8387 32.9796 41.4674 33.8171 40.8701 34.4826C40.2729 35.1481 39.4803 35.6076 38.6059 35.7951C38.3753 35.8401 38.1409 35.8629 37.906 35.8631C37.4794 35.9018 37.0511 35.8101 36.6777 35.6001C36.3043 35.3901 36.0035 35.0718 35.815 34.6871C35.4735 33.8998 35.3181 33.0443 35.3609 32.1871C35.3063 31.3073 35.4837 30.4285 35.8755 29.6387C36.2672 28.849 36.8594 28.176 37.5929 27.6871" fill="#2A2B2A"/>
<path d="M47.893 58.2399C47.893 58.0399 47.893 57.5919 47.88 57.4069C47.63 53.6159 45.635 52.2199 42.203 52.2199C41.5626 52.2197 40.9229 52.2611 40.2879 52.3439C40.0779 52.3689 39.8619 52.3949 39.6519 52.4299C38.7402 52.579 37.84 52.7918 36.958 53.0669C33.937 54.0049 31.258 55.6169 30.237 57.4009L35.079 60.0709C35.13 59.9709 35.179 59.8779 35.232 59.7709C35.573 59.0369 35.5639 58.1819 36.0219 56.7929C36.7849 54.4749 38.237 52.5489 40.122 52.5489H40.1789C40.1849 52.5489 40.1909 52.5489 40.1909 52.5559C40.498 52.5281 40.8062 52.5949 41.0743 52.7472C41.3423 52.8994 41.5575 53.1299 41.6909 53.4079C41.8974 53.8974 41.9908 54.4272 41.964 54.9579V60.6959C39.303 61.9139 37.059 62.9389 36.031 63.4069C33.051 64.6449 31.261 65.6809 30.266 66.8139C30.0343 67.0702 29.833 67.3524 29.6659 67.6549C29.2917 68.3934 29.1097 69.2144 29.1369 70.0419C29.1369 73.3419 31.4949 74.3829 33.9439 74.3829C34.7601 74.3858 35.5733 74.2849 36.364 74.0829C38.4232 73.4935 40.3325 72.4706 41.964 71.0829C42.1788 72.0197 42.6659 72.8721 43.364 73.5329C44.2363 74.1752 45.3127 74.4777 46.3919 74.3839C49.5059 74.3839 52.05 71.8839 52.05 71.1739C52.0508 71.151 52.0488 71.1282 52.044 71.1059C51.7325 71.5915 51.3538 72.0306 50.919 72.4099C50.783 72.5349 50.669 72.6249 50.607 72.6819C50.5929 72.6945 50.5774 72.7056 50.5609 72.7149C50.5577 72.7195 50.5536 72.7236 50.549 72.7269C50.1304 73.1031 49.595 73.3238 49.0329 73.3519C48.2819 73.3519 47.857 72.9259 47.857 72.0339L47.9019 59.1779L52.4549 57.3019C52.4549 57.3019 53.865 58.5899 54.399 59.1669C54.7233 59.4976 54.9703 59.8962 55.122 60.3339C55.2188 60.6871 55.2682 61.0516 55.269 61.4179C55.275 61.4959 55.279 61.5819 55.279 61.6669V70.9669C55.279 74.4809 52.3959 73.2179 52.0409 74.0469H64.414C64.059 73.2179 61.175 74.4819 61.175 70.9669V61.4099C61.2524 60.4258 61.5431 59.4703 62.0269 58.6099L62.06 58.5529C62.0605 58.5441 62.0644 58.5358 62.071 58.5299C62.0735 58.5173 62.0798 58.5058 62.089 58.4969C62.4034 57.8969 62.8369 57.3675 63.3629 56.9409C63.3818 56.9223 63.4034 56.9068 63.427 56.8949C63.4768 56.8557 63.5292 56.8199 63.584 56.7879C63.641 56.7549 63.697 56.7199 63.753 56.6879C64.431 56.3411 65.1847 56.1685 65.9461 56.186C66.7075 56.2035 67.4526 56.4103 68.114 56.7879C68.5762 56.9965 69.023 57.2378 69.451 57.5099V51.9359C69.451 51.9359 63.759 50.9659 61.174 60.0359V52.5139L47.893 58.2399ZM37.5929 63.6579C38.6639 63.0419 40.263 62.4379 41.964 61.6579V67.5229C41.9637 67.7007 41.9527 67.8784 41.9309 68.0549C41.8387 68.9444 41.4674 69.7818 40.8701 70.4474C40.2729 71.1129 39.4803 71.5723 38.6059 71.7599C38.3753 71.8049 38.141 71.8277 37.906 71.8279C37.4794 71.8663 37.0512 71.7744 36.6779 71.5645C36.3046 71.3545 36.0037 71.0363 35.815 70.6519C35.4738 69.8644 35.3184 69.009 35.3609 68.1519C35.3063 67.272 35.4837 66.3933 35.8755 65.6035C36.2672 64.8138 36.8594 64.1408 37.5929 63.6519" fill="#2A2B2A"/>
<path d="M72.876 68.3848C72.876 72.0398 74.9351 74.3848 79.0081 74.3848C84.2081 74.3848 86.078 70.6848 86.078 69.9778C86.078 69.7468 85.849 70.4638 85.755 70.6248C85.5685 70.9834 85.3329 71.3142 85.0551 71.6077C84.6701 72.1072 84.1717 72.5079 83.6012 72.7766C83.0307 73.0452 82.4043 73.1742 81.774 73.1528C80.037 73.1528 78.774 72.0307 78.774 69.1257L78.748 53.7628L82.748 53.6177H85.2111V53.2368L78.75 53.0038L78.776 44.6978C78.731 44.7258 78.6851 44.7547 78.6411 44.7767C76.2911 46.1521 74.5097 47.1727 73.297 47.8387C73.15 47.9167 73.008 47.9958 72.873 48.0698C72.434 48.3068 72.022 48.5217 71.649 48.7117C71.141 48.9667 70.689 49.1747 70.311 49.3387L72.004 51.3478C72.3149 51.6895 72.5597 52.0858 72.726 52.5168C72.731 52.5287 72.7347 52.5411 72.737 52.5538C72.8254 52.8944 72.8708 53.2448 72.872 53.5967L72.876 68.3848Z" fill="#2A2B2A"/>
<path d="M101.597 3.58594C99.1529 5.0126 97.3062 6.07093 96.0569 6.76093C95.9109 6.83993 95.769 6.91792 95.627 6.99292C95.184 7.22892 94.766 7.44494 94.393 7.64294C93.8776 7.89694 93.4266 8.10627 93.0399 8.27094L94.7499 10.3019C95.0515 10.6551 95.2974 11.0524 95.4789 11.4799C95.6134 11.9156 95.6693 12.3717 95.6439 12.827V17.0139C94.2173 16.493 92.7076 16.2365 91.189 16.257C89.5589 16.2111 87.9362 16.4928 86.417 17.0855C84.8978 17.6782 83.5131 18.5698 82.3449 19.7075C81.1766 20.8452 80.2485 22.2058 79.6157 23.7087C78.9829 25.2116 78.6583 26.8263 78.6609 28.457C78.6609 34.89 83.199 38.489 87.268 38.489C88.8448 38.5335 90.4107 38.2153 91.8451 37.5589C93.2795 36.9025 94.5439 35.9254 95.5409 34.7029H95.6409V38.1379H104.899C104.887 38.1159 104.876 38.0929 104.865 38.0759C104.778 37.9641 104.654 37.8874 104.515 37.8599C103.62 37.5999 101.629 37.9689 101.629 35.0319L101.597 3.58594ZM91.0549 17.1049C93.8889 17.1049 95.6439 18.9109 95.6439 21.9319V34.275C95.0656 34.915 94.3567 35.4235 93.5651 35.7661C92.7734 36.1087 91.9174 36.2775 91.0549 36.2609C87.9309 36.2609 84.903 31.961 84.903 26.754C84.903 20.043 87.5509 17.1039 91.0549 17.1039" fill="#2A2B2A"/>
<path d="M127.44 35.0319C127.44 38.5639 124.045 37.3438 123.626 38.1768H137.179C136.759 37.3438 133.365 38.6138 133.365 35.0768V16.4028H133.36C133.36 16.4028 133.353 16.4028 133.353 16.4088C130.922 17.8255 129.088 18.8762 127.853 19.5609C127.706 19.6389 127.564 19.7188 127.428 19.7928C126.986 20.0318 126.572 20.2458 126.198 20.4398C125.688 20.6948 125.235 20.9038 124.855 21.0678L126.555 23.0869C126.854 23.4215 127.099 23.8007 127.282 24.2108C127.663 25.1898 127.445 31.3108 127.445 35.0328" fill="#2A2B2A"/>
<path d="M130.404 13.7368C131.063 13.7366 131.707 13.541 132.255 13.1746C132.803 12.8083 133.23 12.2876 133.482 11.6786C133.735 11.0696 133.8 10.3994 133.672 9.75294C133.543 9.10647 133.225 8.51273 132.759 8.0467C132.293 7.58067 131.699 7.2633 131.053 7.13478C130.406 7.00625 129.736 7.0723 129.127 7.3246C128.518 7.57689 127.998 8.00411 127.631 8.5522C127.265 9.10028 127.07 9.74466 127.07 10.4038C127.074 11.2867 127.426 12.1324 128.051 12.7566C128.675 13.3808 129.521 13.7331 130.404 13.7368Z" fill="#2A2B2A"/>
<path d="M151.113 52.239C150.298 48.579 146.813 44.667 139.475 44.667C133.286 44.667 123.838 49.84 119.052 52.723L112.64 56.187C111.287 56.827 109.934 57.4674 108.582 58.108C108.582 58.108 105.823 52.508 99.7659 52.508C98.4274 52.4954 97.1384 53.0133 96.1807 53.9484C95.2229 54.8834 94.6743 56.1596 94.6548 57.498C94.6125 58.1721 94.7099 58.8477 94.9407 59.4825C95.1715 60.1173 95.5308 60.6976 95.9962 61.1871C96.4616 61.6766 97.0229 62.0648 97.6453 62.3274C98.2676 62.59 98.9374 62.7212 99.6128 62.713C100.883 62.6443 102.122 62.3004 103.246 61.705C103.273 62.226 103.289 62.763 103.289 63.341C103.289 71.312 100.67 74.269 97.6519 74.269C94.6339 74.269 92.3518 71.312 92.3518 63.341C92.3518 55.37 94.8018 52.429 97.8198 52.423V52.261C90.6538 52.261 85.6538 57.356 85.6538 63.343C85.6538 69.33 90.6538 74.429 97.8248 74.429C104.996 74.429 109.989 69.329 109.989 63.343C109.985 61.8222 109.649 60.3205 109.005 58.943C110.005 58.4543 111.008 57.9647 112.015 57.474L113.233 58.915C113.529 59.2723 113.774 59.6695 113.96 60.095C114.145 61.5519 114.204 63.022 114.136 64.489C114.136 66.202 114.157 70.939 114.157 70.939C114.157 74.481 111.257 73.206 110.894 74.039H123.353C122.998 73.204 120.092 74.479 120.092 70.939L120.053 57.739V56.139C120.053 56.139 124.253 53.686 125.589 53.686C127.441 53.686 128.346 55.712 128.346 57.88L128.396 70.941C128.396 74.483 125.49 73.208 125.136 74.041H137.6C137.243 73.206 134.338 74.481 134.338 70.941L134.292 57.597C134.292 53.919 131.84 52.22 128.866 52.22C125.755 52.22 123.824 52.902 120.053 55.171V52.961C124.958 50.061 133.787 45.372 139.476 45.372C146.396 45.372 149.669 48.998 150.426 52.391C150.809 54.2257 150.542 56.1366 149.67 57.7958C148.799 59.4551 147.377 60.7594 145.649 61.485C145.574 61.5172 145.513 61.5743 145.476 61.6464C145.438 61.7186 145.427 61.8014 145.443 61.881C145.46 61.9606 145.503 62.032 145.567 62.0832C145.63 62.1344 145.709 62.1622 145.79 62.162C145.845 62.1616 145.899 62.1479 145.947 62.122C147.822 61.33 149.363 59.9101 150.305 58.1061C151.247 56.302 151.532 54.2262 151.111 52.235L151.113 52.239ZM99.6578 61.802C99.1027 61.8146 98.5511 61.7113 98.0382 61.4986C97.5253 61.2859 97.0624 60.9685 96.6792 60.5667C96.296 60.1649 96.0008 59.6875 95.8125 59.1652C95.6242 58.6428 95.547 58.0869 95.5858 57.533C95.5858 55.853 96.9689 52.969 99.5099 52.969C101.861 52.969 103.177 57.232 103.177 60.706C102.12 61.3736 100.907 61.7529 99.6578 61.806" fill="#2A2B2A"/>
<path d="M159.649 4.77893C163.549 2.83093 168.574 0.878906 173.467 0.878906C181.001 0.878906 187.118 2.59292 191.158 5.83392C192.735 7.02522 194.02 8.561 194.914 10.3242C195.808 12.0873 196.287 14.0313 196.316 16.0079C196.316 16.4169 196.292 16.8169 196.254 17.2079C194.477 17.9181 192.932 19.1062 191.79 20.6406C190.647 22.1749 189.951 23.9955 189.78 25.9009C188.972 26.1691 188.13 26.3243 187.28 26.3619C187.136 24.4817 186.468 22.6794 185.352 21.1594C184.236 19.6394 182.717 18.4624 180.966 17.7619L180.721 17.6479C179.953 17.319 179.159 17.0539 178.347 16.8549C178.617 15.4489 179.383 14.1864 180.504 13.2962C181.626 12.4061 183.029 11.9472 184.46 12.0029V11.9289C184.554 11.9289 184.644 11.8916 184.71 11.8252C184.776 11.7588 184.814 11.6688 184.814 11.5749C184.814 11.481 184.776 11.391 184.71 11.3246C184.644 11.2582 184.554 11.2209 184.46 11.2209C182.841 11.1563 181.252 11.6687 179.977 12.6667C178.701 13.6647 177.821 15.0834 177.494 16.6699C177.085 16.5939 176.694 16.5319 176.33 16.4949L176.072 16.4729C175.765 16.4469 175.478 16.4339 175.22 16.4339C168.092 16.4339 163.12 21.5019 163.12 27.4579C163.1 29.5417 163.696 31.585 164.832 33.3318C165.968 35.0786 167.595 36.4512 169.508 37.2779C166.399 37.4779 162.297 38.4679 162.297 43.2139C162.297 46.5769 166.206 50.7669 173.876 50.7669C180.868 50.7669 185.817 52.9879 187.81 57.0159C188.337 57.9938 188.633 59.0797 188.674 60.1899C188.674 67.5959 182.589 72.7309 175.227 72.7309C166.695 72.7309 162.112 67.2029 161.435 61.7819H161.429C161.419 61.6977 161.378 61.62 161.315 61.5635C161.251 61.507 161.17 61.4755 161.085 61.4749C160.991 61.4749 160.901 61.5122 160.834 61.5786C160.768 61.6449 160.73 61.7349 160.73 61.8289C160.732 61.8422 160.734 61.8553 160.739 61.8679H160.73C161.455 67.6729 166.16 73.6079 175.23 73.6079C185.778 73.6079 191.104 63.9879 191.104 58.2339C191.104 44.9769 179.973 44.7059 171.846 44.5079C166.71 44.3829 163.559 44.1939 163.559 41.9639C163.556 41.5879 163.624 41.2147 163.759 40.8639L163.742 40.8549L163.76 40.8629C164.728 38.3879 169.241 38.0709 171.989 38.1129C173.052 38.3615 174.139 38.4876 175.231 38.4889C182.36 38.4889 187.331 33.4139 187.331 27.4599C187.331 27.3859 187.324 27.3169 187.323 27.2439C188.133 27.2045 188.935 27.0654 189.712 26.8299C189.704 27.0069 189.688 27.1799 189.688 27.3599C189.688 34.0099 193.81 38.5039 200.132 38.5039C207.857 38.5039 210.012 32.3229 210.012 30.9189C210.016 30.8388 209.989 30.7602 209.937 30.6993C209.884 30.6385 209.811 30.6 209.731 30.5919C209.311 30.5919 209.356 31.3389 208.374 32.4169C207.677 33.2398 206.798 33.8884 205.806 34.3112C204.814 34.7339 203.737 34.9191 202.661 34.8519C198.774 34.8519 195.122 32.0419 195.028 26.3299H210.012C209.825 19.8679 205.377 16.4969 200.132 16.4969C199.125 16.4968 198.124 16.6361 197.156 16.9109C197.176 16.6109 197.197 16.3169 197.197 16.0109C197.17 13.9024 196.661 11.8279 195.71 9.94574C194.76 8.06361 193.391 6.42358 191.71 5.15088C187.51 1.78288 181.205 0.00292969 173.469 0.00292969C168.563 0.00292969 163.562 1.8809 159.634 3.8089L159.61 3.82391C157.986 4.62391 156.547 5.42391 155.376 6.10791L154.061 6.81689C153.914 6.89589 153.773 6.97489 153.631 7.04889C153.191 7.28489 152.772 7.50094 152.398 7.69794C151.884 7.95294 151.432 8.16193 151.048 8.32593L152.754 10.3559C153.06 10.7045 153.306 11.1016 153.483 11.5309C153.619 11.9654 153.675 12.4213 153.647 12.8759V17.0599C152.223 16.5388 150.715 16.2823 149.199 16.3029C147.57 16.257 145.949 16.5384 144.432 17.1304C142.914 17.7225 141.531 18.6131 140.364 19.7496C139.196 20.886 138.269 22.2452 137.637 23.7466C137.005 25.2479 136.68 26.8609 136.683 28.4899C136.683 34.9179 141.216 38.5119 145.283 38.5119C146.858 38.5571 148.423 38.2397 149.856 37.5841C151.289 36.9285 152.552 35.9523 153.548 34.7309H153.648V38.1629H162.896C162.884 38.1399 162.872 38.1169 162.863 38.1009C162.776 37.9884 162.651 37.9119 162.512 37.8859C161.619 37.6259 159.63 37.9929 159.63 35.0589L159.649 4.77893ZM153.649 34.2959C153.071 34.9355 152.363 35.4437 151.572 35.7861C150.782 36.1286 149.926 36.2973 149.065 36.2809C145.945 36.2809 142.92 31.9809 142.92 26.7809C142.92 20.0809 145.566 17.1429 149.065 17.1429C151.897 17.1429 153.649 18.9429 153.649 21.9649V34.2959ZM195.549 22.1639C196.148 21.1469 196.589 20.0446 196.856 18.8949C197.158 18.2604 197.62 17.7158 198.197 17.3147C198.774 16.9136 199.446 16.67 200.146 16.6079C202.8 16.6079 204.346 19.0259 204.395 25.4469H195.062C195.122 24.3402 195.285 23.2415 195.549 22.1649V22.1639ZM178.209 17.7139C179.25 18.7139 180.176 20.6139 180.527 24.1729C180.435 24.0869 180.337 24.0069 180.25 23.9149C178.886 22.4867 178.133 20.5834 178.15 18.6089C178.151 18.308 178.17 18.0076 178.207 17.7089L178.209 17.7139ZM175.066 38.3259C172.066 38.3259 169.791 35.3839 169.791 27.4539C169.791 19.5239 172.225 16.5999 175.229 16.5929C175.988 16.5696 176.74 16.7477 177.409 17.1089C177.318 17.6037 177.272 18.1058 177.271 18.6089C177.252 20.8109 178.093 22.9334 179.614 24.5259C179.923 24.8417 180.257 25.1317 180.614 25.3929C180.649 26.0359 180.67 26.7189 180.67 27.4579C180.67 35.3879 178.07 38.3299 175.063 38.3299" fill="#2A2B2A"/>
<path d="M24.2748 15.1519C24.1678 15.176 24.0555 15.1574 23.962 15.0998C23.8686 15.0422 23.8014 14.9504 23.7748 14.8439C23.1386 12.7613 21.8468 10.9398 20.0918 9.65059C18.3368 8.36137 16.2124 7.67331 14.0349 7.68886C10.6829 7.68886 7.98682 9.44685 7.98682 12.9079C7.98682 20.3769 27.1508 16.2339 27.1508 28.5739C27.1508 34.6309 21.8639 39.2739 14.7379 39.2739C10.0649 39.2739 7.84482 37.1739 6.00482 37.1739C4.16482 37.1739 4.53286 38.7229 3.72986 38.7229L3.73981 24.9699C4.21281 24.9699 4.21282 25.6519 4.40082 26.6079C5.53182 32.3919 7.91881 38.9409 14.8098 38.9409C19.6238 38.9409 22.3369 35.8079 22.3369 32.3019C22.3369 23.1019 3.45581 27.6109 3.45581 16.3169C3.45581 10.9419 8.17581 6.93587 14.0288 6.93587C16.3964 6.8515 18.723 7.56978 20.631 8.97407C22.5391 10.3784 23.9166 12.3863 24.5399 14.6719C24.5535 14.7206 24.5573 14.7715 24.5511 14.8217C24.545 14.8719 24.5289 14.9205 24.5039 14.9644C24.4789 15.0084 24.4455 15.0471 24.4055 15.078C24.3654 15.109 24.3197 15.1317 24.2708 15.1449" fill="#2A2B2A"/>
<path d="M8.41107 87.5817H5.76807V96.4377H4.55603V87.5817H1.91406V86.4517H8.40906L8.41107 87.5817Z" fill="#2A2B2A"/>
<path d="M16.1968 92.1317V96.4317H15.0168V92.2997C15.0532 92.0142 15.0272 91.7242 14.9404 91.4498C14.8536 91.1754 14.7082 90.9232 14.5142 90.7106C14.3203 90.498 14.0824 90.3301 13.8171 90.2186C13.5518 90.107 13.2654 90.0546 12.9778 90.0647C12.6881 90.0534 12.3995 90.1048 12.1315 90.2153C11.8636 90.3259 11.6226 90.4929 11.4252 90.7051C11.2277 90.9173 11.0783 91.1696 10.9873 91.4448C10.8963 91.72 10.8658 92.0116 10.8978 92.2997V96.4317H9.71582V86.4517H10.8978V90.3187C11.1411 89.8908 11.4987 89.5392 11.9305 89.303C12.3623 89.0669 12.8514 88.9556 13.3428 88.9817C14.8748 88.9817 16.1968 89.9367 16.1968 92.1307" fill="#2A2B2A"/>
<path d="M24.645 93.215H18.628C18.6924 93.8876 19.0161 94.5088 19.5305 94.9469C20.045 95.385 20.7097 95.6056 21.384 95.562C21.7886 95.5726 22.1909 95.4993 22.5657 95.3469C22.9406 95.1944 23.2798 94.966 23.562 94.676L24.152 95.276C23.796 95.6946 23.3507 96.028 22.8488 96.2518C22.3469 96.4755 21.8013 96.5839 21.252 96.569C20.277 96.5356 19.3523 96.1286 18.6692 95.4321C17.9861 94.7357 17.597 93.8032 17.5825 92.8278C17.5679 91.8523 17.9291 90.9087 18.5912 90.1922C19.2533 89.4757 20.1655 89.0414 21.139 88.979C22.995 88.979 24.939 90.314 24.639 93.211L24.645 93.215ZM18.6221 92.311H23.598C23.5913 91.9982 23.5225 91.6899 23.3954 91.4041C23.2684 91.1182 23.0857 90.8605 22.858 90.6459C22.6304 90.4314 22.3623 90.2643 22.0694 90.1544C21.7765 90.0445 21.4646 89.9941 21.152 90.006C20.5146 89.9908 19.8959 90.2219 19.4246 90.6512C18.9532 91.0805 18.6654 91.6749 18.621 92.311" fill="#2A2B2A"/>
<path d="M35.481 92.1317V96.4317H34.299V92.2997C34.3354 92.0143 34.3094 91.7244 34.2227 91.4501C34.1359 91.1758 33.9906 90.9236 33.7968 90.711C33.6029 90.4984 33.3651 90.3305 33.1 90.2189C32.8348 90.1073 32.5486 90.0547 32.261 90.0647C31.9714 90.0534 31.6827 90.1048 31.4147 90.2153C31.1468 90.3259 30.9058 90.4929 30.7084 90.7051C30.5109 90.9173 30.3616 91.1696 30.2706 91.4448C30.1796 91.72 30.149 92.0116 30.181 92.2997V96.4317H28.999V86.4517H30.181V90.3187C30.4245 89.891 30.7821 89.5395 31.2139 89.3033C31.6457 89.0672 32.1346 88.9558 32.626 88.9817C34.158 88.9817 35.481 89.9367 35.481 92.1307" fill="#2A2B2A"/>
<path d="M36.7859 92.7777C36.7847 92.0258 37.0066 91.2906 37.4234 90.6649C37.8402 90.0392 38.4333 89.5512 39.1276 89.2627C39.8218 88.9741 40.586 88.898 41.3236 89.044C42.0611 89.1899 42.7387 89.5513 43.2708 90.0825C43.8028 90.6137 44.1653 91.2909 44.3124 92.0282C44.4596 92.7655 44.3847 93.5298 44.0972 94.2245C43.8098 94.9192 43.3227 95.5131 42.6977 95.9309C42.0727 96.3487 41.3377 96.5717 40.5859 96.5717C40.0836 96.5854 39.5839 96.4968 39.117 96.3111C38.6502 96.1253 38.226 95.8464 37.8704 95.4914C37.5149 95.1364 37.2354 94.7127 37.0489 94.2462C36.8624 93.7796 36.7729 93.2799 36.7859 92.7777ZM43.1959 92.7777C43.1767 92.2648 43.007 91.7689 42.708 91.3518C42.409 90.9346 41.994 90.6147 41.5145 90.4317C41.035 90.2487 40.5122 90.2108 40.0114 90.3227C39.5105 90.4346 39.0536 90.6913 38.6976 91.0609C38.3415 91.4306 38.1021 91.8968 38.0091 92.4016C37.9161 92.9063 37.9735 93.4272 38.1744 93.8995C38.3752 94.3718 38.7106 94.7746 39.1387 95.0577C39.5668 95.3408 40.0687 95.4918 40.5819 95.4917C40.9352 95.4969 41.2857 95.4294 41.6118 95.2935C41.9379 95.1576 42.2326 94.9562 42.4777 94.7017C42.7227 94.4473 42.913 94.1453 43.0365 93.8143C43.1601 93.4833 43.2143 93.1305 43.1959 92.7777Z" fill="#2A2B2A"/>
<path d="M56.5349 92.132V96.432H55.3539V92.215C55.3539 90.88 54.7539 90.065 53.5839 90.065C52.4019 90.065 51.6989 90.88 51.6989 92.215V96.432H50.5179V92.215C50.5179 90.88 49.9179 90.065 48.7479 90.065C47.5659 90.065 46.8629 90.88 46.8629 92.215V96.432H45.6809V89.123H46.8609V90.261C47.0736 89.8577 47.3967 89.5233 47.7925 89.297C48.1884 89.0706 48.6404 88.9617 49.0959 88.983C49.5862 88.9575 50.0722 89.0862 50.4858 89.3509C50.8993 89.6156 51.2196 90.0031 51.4019 90.459C51.6251 89.9951 51.9804 89.6074 52.4233 89.3448C52.8661 89.0822 53.3767 88.9563 53.8909 88.983C55.4089 88.983 56.5329 89.952 56.5329 92.132" fill="#2A2B2A"/>
<path d="M64.9819 93.215H58.9649C59.0292 93.8874 59.3528 94.5085 59.867 94.9465C60.3812 95.3846 61.0458 95.6053 61.7199 95.562C62.1246 95.5726 62.5271 95.4995 62.9021 95.347C63.2771 95.1945 63.6165 94.966 63.8989 94.676L64.4889 95.276C64.1328 95.6945 63.6875 96.0279 63.1856 96.2516C62.6838 96.4754 62.1382 96.5838 61.5889 96.569C60.614 96.5353 59.6894 96.1279 59.0065 95.4313C58.3236 94.7347 57.9348 93.8022 57.9206 92.8268C57.9063 91.8515 58.2677 90.9079 58.9299 90.1917C59.5921 89.4754 60.5044 89.0412 61.4779 88.979C63.3339 88.979 65.2779 90.314 64.9779 93.211L64.9819 93.215ZM58.9609 92.311H63.9359C63.9295 91.9982 63.8608 91.6899 63.7339 91.4039C63.607 91.118 63.4244 90.8603 63.1968 90.6457C62.9692 90.4311 62.7011 90.264 62.4082 90.1542C62.1153 90.0443 61.8035 89.994 61.4909 90.006C60.8535 89.9908 60.2348 90.2219 59.7634 90.6512C59.292 91.0805 59.0042 91.6749 58.9599 92.311" fill="#2A2B2A"/>
<path d="M68.991 92.7777C68.9898 92.0258 69.2117 91.2906 69.6285 90.6649C70.0453 90.0392 70.6384 89.5512 71.3327 89.2627C72.0269 88.9741 72.7911 88.898 73.5286 89.044C74.2662 89.1899 74.9438 89.5513 75.4758 90.0825C76.0079 90.6137 76.3704 91.2909 76.5175 92.0282C76.6646 92.7655 76.5898 93.5298 76.3023 94.2245C76.0149 94.9192 75.5278 95.5131 74.9028 95.9309C74.2777 96.3487 73.5428 96.5717 72.791 96.5717C72.2887 96.5854 71.7889 96.4968 71.3221 96.3111C70.8552 96.1253 70.4311 95.8464 70.0755 95.4914C69.7199 95.1364 69.4404 94.7127 69.254 94.2462C69.0675 93.7796 68.978 93.2799 68.991 92.7777ZM75.402 92.7777C75.383 92.2646 75.2134 91.7684 74.9144 91.3509C74.6155 90.9335 74.2003 90.6132 73.7206 90.43C73.2409 90.2467 72.718 90.2087 72.2168 90.3205C71.7157 90.4323 71.2585 90.6892 70.9022 91.0589C70.546 91.4287 70.3063 91.895 70.2132 92.4C70.1201 92.9049 70.1775 93.4262 70.3784 93.8987C70.5793 94.3712 70.9148 94.7742 71.3431 95.0575C71.7714 95.3407 72.2735 95.4918 72.787 95.4917C73.1403 95.4968 73.4908 95.4294 73.817 95.2935C74.1431 95.1576 74.4379 94.9562 74.6831 94.7018C74.9282 94.4474 75.1185 94.1453 75.2422 93.8144C75.3659 93.4834 75.4202 93.1305 75.402 92.7777Z" fill="#2A2B2A"/>
<path d="M79.4298 88.4627V89.1237H81.4408V90.0937H79.4298V96.4317H78.2358V90.0937H77.3928V89.1237H78.2358V88.3237C78.1998 88.04 78.2278 87.7518 78.3177 87.4802C78.4076 87.2087 78.5571 86.9608 78.7554 86.7546C78.9536 86.5484 79.1954 86.3892 79.4632 86.2887C79.731 86.1882 80.0179 86.1489 80.3028 86.1737C80.7007 86.163 81.0942 86.2597 81.4418 86.4537V87.3967C81.1643 87.2681 80.8627 87.2 80.5568 87.1967C79.8808 87.1967 79.4318 87.5337 79.4318 88.4617" fill="#2A2B2A"/>
<path d="M85.5419 94.1427L86.5419 93.6787C86.6727 94.1973 86.9769 94.6557 87.4039 94.9778C87.831 95.2999 88.3553 95.4664 88.8899 95.4497C89.1343 95.4794 89.3822 95.4574 89.6176 95.3851C89.8529 95.3129 90.0705 95.1919 90.2561 95.0301C90.4417 94.8683 90.5912 94.6692 90.6948 94.4459C90.7985 94.2225 90.8541 93.9799 90.8579 93.7337C90.8579 92.7077 90.1259 92.2577 88.9579 91.7937L88.2979 91.5407C86.8339 90.9507 85.9498 90.1347 85.9498 88.8407C85.9575 88.4814 86.0396 88.1276 86.1908 87.8016C86.342 87.4757 86.5592 87.1846 86.8286 86.9467C87.098 86.7089 87.4138 86.5295 87.756 86.4199C88.0982 86.3102 88.4594 86.2727 88.8169 86.3097C89.4753 86.2875 90.1233 86.4779 90.665 86.8527C91.2068 87.2275 91.6134 87.7668 91.8248 88.3907L90.8978 88.8677C90.7529 88.4401 90.4761 88.0696 90.1072 87.8094C89.7383 87.5492 89.2963 87.4127 88.8448 87.4197C88.638 87.3926 88.4279 87.4092 88.2279 87.4683C88.0279 87.5274 87.8424 87.6277 87.6835 87.7628C87.5246 87.8978 87.3957 88.0647 87.3052 88.2526C87.2146 88.4405 87.1645 88.6453 87.1578 88.8537C87.1578 89.5537 87.5798 90.1047 88.7578 90.5677L89.4329 90.8347C91.0629 91.4817 92.0898 92.2117 92.0898 93.7447C92.0799 94.1457 91.9872 94.5404 91.8176 94.9039C91.648 95.2675 91.4053 95.5921 91.1044 95.8574C90.8035 96.1227 90.451 96.323 90.0691 96.4458C89.6872 96.5685 89.284 96.611 88.8849 96.5707C88.1329 96.6108 87.39 96.3912 86.7808 95.9486C86.1715 95.5059 85.733 94.8672 85.5388 94.1397" fill="#2A2B2A"/>
<path d="M99.8809 92.1317V96.4317H98.6998V92.2997C98.7361 92.0142 98.7099 91.7243 98.623 91.45C98.5362 91.1757 98.3907 90.9236 98.1968 90.711C98.0029 90.4984 97.7651 90.3305 97.4999 90.2189C97.2347 90.1073 96.9484 90.0547 96.6609 90.0647C96.3713 90.0536 96.0827 90.1051 95.8148 90.2156C95.5469 90.3262 95.3061 90.4933 95.1086 90.7054C94.9112 90.9176 94.7619 91.1698 94.6708 91.4449C94.5797 91.7201 94.549 92.0116 94.5808 92.2997V96.4317H93.3999V86.4517H94.5808V90.3187C94.8245 89.8911 95.1824 89.5398 95.6144 89.304C96.0464 89.0682 96.5354 88.9574 97.0269 88.9837C98.5599 88.9837 99.8809 89.9387 99.8809 92.1327" fill="#2A2B2A"/>
<path d="M101.186 92.7778C101.154 92.2888 101.224 91.7986 101.39 91.3376C101.556 90.8766 101.815 90.4548 102.151 90.0983C102.488 89.7418 102.894 89.4584 103.344 89.2656C103.795 89.0728 104.28 88.9749 104.77 88.9778C105.323 88.9522 105.872 89.0806 106.356 89.3486C106.84 89.6166 107.24 90.0138 107.512 90.4958H107.554V89.1188H108.735V96.4278H107.554V95.0518H107.512C107.24 95.5338 106.84 95.9308 106.356 96.1986C105.872 96.4665 105.323 96.5946 104.77 96.5688C104.28 96.5717 103.796 96.4739 103.346 96.2815C102.895 96.0891 102.49 95.8062 102.154 95.4504C101.818 95.0946 101.558 94.6735 101.392 94.2132C101.225 93.7529 101.155 93.2633 101.186 92.7748V92.7778ZM107.597 92.7748C107.578 92.2623 107.409 91.7667 107.11 91.3495C106.812 90.9323 106.398 90.612 105.919 90.4284C105.44 90.2447 104.918 90.2059 104.417 90.3166C103.916 90.4273 103.459 90.6827 103.102 91.051C102.745 91.4194 102.504 91.8845 102.41 92.3886C102.315 92.8926 102.37 93.4134 102.569 93.8862C102.768 94.359 103.101 94.7629 103.528 95.0479C103.954 95.3328 104.455 95.4861 104.968 95.4888C105.323 95.498 105.676 95.4334 106.005 95.2991C106.334 95.1648 106.631 94.9638 106.878 94.7087C107.125 94.4536 107.317 94.15 107.44 93.8172C107.564 93.4843 107.617 93.1294 107.597 92.7748Z" fill="#2A2B2A"/>
<path d="M114.342 89.0427V90.1538C114.208 90.1241 114.071 90.1103 113.934 90.1127C113.599 90.1149 113.268 90.1875 112.963 90.3258C112.657 90.464 112.384 90.6649 112.162 90.9155C111.939 91.166 111.772 91.4606 111.67 91.78C111.569 92.0995 111.536 92.4366 111.573 92.7697V96.4378H110.391V89.1278H111.573V90.9407C111.667 90.3889 111.955 89.8888 112.386 89.5305C112.816 89.1723 113.36 88.9795 113.92 88.9868C114.063 88.9813 114.206 89.0002 114.343 89.0427" fill="#2A2B2A"/>
<path d="M123.196 92.7778C123.228 93.2664 123.159 93.7565 122.993 94.2172C122.827 94.6779 122.567 95.0995 122.231 95.4556C121.895 95.8116 121.489 96.0945 121.038 96.2865C120.588 96.4786 120.103 96.5757 119.613 96.5718C119.06 96.5979 118.511 96.4699 118.027 96.202C117.543 95.9341 117.142 95.537 116.871 95.0548H116.829V99.1038H115.648V89.1228H116.829V90.4998H116.871C117.142 90.0175 117.543 89.6201 118.027 89.3521C118.511 89.084 119.06 88.9559 119.613 88.9818C120.103 88.978 120.589 89.0753 121.04 89.2677C121.491 89.4602 121.897 89.7437 122.233 90.1004C122.569 90.4571 122.828 90.8793 122.994 91.3407C123.16 91.8021 123.229 92.2926 123.196 92.7818V92.7778ZM122.016 92.7818C121.995 92.2701 121.825 91.7757 121.526 91.3602C121.226 90.9446 120.811 90.6264 120.332 90.445C119.853 90.2636 119.332 90.2271 118.832 90.3401C118.333 90.453 117.878 90.7104 117.523 91.0802C117.169 91.4501 116.931 91.9159 116.84 92.4198C116.748 92.9237 116.807 93.4433 117.009 93.914C117.211 94.3847 117.547 94.7857 117.975 95.0669C118.403 95.3482 118.904 95.4973 119.416 95.4958C119.769 95.5042 120.121 95.4389 120.448 95.3039C120.774 95.169 121.07 94.9674 121.314 94.7121C121.559 94.4567 121.748 94.1532 121.869 93.8208C121.989 93.4885 122.039 93.1346 122.016 92.7818Z" fill="#2A2B2A"/>
<path d="M130.983 92.1317V96.4317H129.802V92.2997C129.838 92.0142 129.812 91.7242 129.725 91.4498C129.639 91.1754 129.493 90.9232 129.299 90.7106C129.105 90.498 128.867 90.3301 128.602 90.2186C128.337 90.107 128.051 90.0546 127.763 90.0647C127.473 90.0536 127.185 90.1051 126.917 90.2156C126.649 90.3262 126.408 90.4933 126.211 90.7054C126.013 90.9176 125.864 91.1698 125.773 91.4449C125.682 91.7201 125.651 92.0116 125.683 92.2997V96.4317H124.502V86.4517H125.683V90.3187C125.927 89.8905 126.285 89.5386 126.717 89.3025C127.149 89.0663 127.639 88.9553 128.131 88.9817C129.664 88.9817 130.985 89.9367 130.985 92.1307" fill="#2A2B2A"/>
<path d="M132.289 92.7778C132.257 92.2888 132.327 91.7986 132.493 91.3376C132.659 90.8766 132.918 90.4547 133.254 90.0983C133.591 89.7418 133.997 89.4583 134.447 89.2656C134.898 89.0728 135.383 88.9748 135.873 88.9778C136.426 88.9523 136.975 89.0808 137.459 89.3487C137.943 89.6167 138.344 90.0138 138.616 90.4958H138.657V89.1188H139.838V96.4278H138.657V95.0518H138.616C138.344 95.5337 137.943 95.9306 137.459 96.1984C136.975 96.4662 136.426 96.5944 135.873 96.5688C135.383 96.5717 134.899 96.4739 134.449 96.2815C133.999 96.0891 133.593 95.8062 133.257 95.4504C132.921 95.0946 132.661 94.6735 132.495 94.2132C132.328 93.7529 132.258 93.2633 132.289 92.7748V92.7778ZM138.7 92.7748C138.681 92.2622 138.512 91.7666 138.213 91.3495C137.915 90.9323 137.501 90.612 137.022 90.4283C136.543 90.2447 136.021 90.2058 135.52 90.3165C135.019 90.4272 134.562 90.6826 134.205 91.051C133.848 91.4194 133.608 91.8845 133.513 92.3885C133.418 92.8926 133.474 93.4134 133.672 93.8862C133.871 94.3589 134.204 94.7629 134.631 95.0478C135.057 95.3328 135.558 95.4861 136.071 95.4888C136.426 95.4979 136.779 95.4333 137.108 95.2991C137.437 95.1648 137.734 94.9637 137.981 94.7087C138.228 94.4536 138.42 94.15 138.543 93.8171C138.667 93.4842 138.72 93.1293 138.7 92.7748Z" fill="#2A2B2A"/>
<path d="M152.349 92.132V96.432H151.167V92.215C151.167 90.88 150.567 90.065 149.397 90.065C148.216 90.065 147.513 90.88 147.513 92.215V96.432H146.331V92.215C146.331 90.88 145.731 90.065 144.561 90.065C143.391 90.065 142.677 90.88 142.677 92.215V96.432H141.496V89.123H142.677V90.261C142.889 89.8578 143.212 89.5235 143.608 89.2972C144.004 89.0709 144.456 88.9619 144.911 88.983C145.401 88.9577 145.887 89.0864 146.301 89.3511C146.714 89.6158 147.035 90.0031 147.217 90.459C147.44 89.9951 147.795 89.6075 148.238 89.3449C148.68 89.0823 149.191 88.9564 149.705 88.983C151.223 88.983 152.348 89.952 152.348 92.132" fill="#2A2B2A"/>
<path d="M156.589 86.4517H157.868L160.188 94.2967L162.704 86.4517H163.674L166.19 94.2967L168.509 86.4517H169.789L166.752 96.4327H165.782L163.182 88.5477L160.595 96.4327H159.625L156.589 86.4517Z" fill="#2A2B2A"/>
<path d="M171.025 86.4531H172.207V87.5531H171.025V86.4531ZM171.025 89.1241H172.207V96.4341H171.025V89.1241Z" fill="#2A2B2A"/>
<path d="M180.343 92.1318V96.4318H179.162V92.2998C179.198 92.0144 179.172 91.7245 179.085 91.4502C178.999 91.1759 178.853 90.9237 178.66 90.7111C178.466 90.4985 178.228 90.3307 177.963 90.2191C177.698 90.1075 177.411 90.0548 177.124 90.0648C176.834 90.0537 176.546 90.1052 176.278 90.2158C176.01 90.3263 175.769 90.4934 175.572 90.7056C175.374 90.9177 175.225 91.1699 175.134 91.4451C175.043 91.7202 175.012 92.0118 175.044 92.2998V96.4318H173.862V89.1228H175.044V90.3168C175.287 89.8893 175.645 89.538 176.077 89.3022C176.509 89.0665 176.997 88.9555 177.489 88.9818C179.022 88.9818 180.343 89.9368 180.343 92.1308" fill="#2A2B2A"/>
<path d="M188.792 93.215H182.775C182.839 93.8876 183.163 94.5088 183.678 94.9469C184.192 95.385 184.857 95.6056 185.531 95.562C185.936 95.5725 186.338 95.4993 186.713 95.3468C187.088 95.1943 187.427 94.9659 187.709 94.676L188.299 95.276C187.943 95.6946 187.498 96.0281 186.996 96.2518C186.494 96.4756 185.948 96.584 185.399 96.569C184.424 96.5356 183.499 96.1286 182.816 95.4321C182.133 94.7357 181.744 93.8032 181.729 92.8278C181.715 91.8523 182.076 90.9087 182.738 90.1922C183.4 89.4757 184.313 89.0414 185.286 88.979C187.142 88.979 189.086 90.314 188.786 93.211L188.792 93.215ZM182.769 92.311H187.746C187.739 91.9982 187.671 91.6898 187.544 91.4039C187.417 91.1179 187.234 90.8602 187.006 90.6456C186.779 90.4311 186.51 90.264 186.217 90.1542C185.925 90.0444 185.613 89.994 185.3 90.006C184.663 89.9908 184.044 90.2219 183.573 90.6512C183.101 91.0805 182.813 91.6749 182.769 92.311Z" fill="#2A2B2A"/>
</svg>
