<svg width="18" height="18" viewBox="0 0 18 18" fill="none" xmlns="http://www.w3.org/2000/svg">
<path d="M12.6498 11.1918H11.8819L11.6098 10.9294C12.5623 9.82133 13.1358 8.38279 13.1358 6.8179C13.1358 3.32847 10.3073 0.5 6.8179 0.5C3.32847 0.5 0.5 3.32847 0.5 6.8179C0.5 10.3073 3.32847 13.1358 6.8179 13.1358C8.38279 13.1358 9.82133 12.5623 10.9294 11.6098L11.1918 11.8819V12.6498L16.0517 17.5L17.5 16.0517L12.6498 11.1918ZM6.8179 11.1918C4.39766 11.1918 2.44397 9.23814 2.44397 6.8179C2.44397 4.39766 4.39766 2.44397 6.8179 2.44397C9.23814 2.44397 11.1918 4.39766 11.1918 6.8179C11.1918 9.23814 9.23814 11.1918 6.8179 11.1918Z" fill="white"/>
</svg>
