<svg width="13" height="20" viewBox="0 0 13 20" fill="none" xmlns="http://www.w3.org/2000/svg">
<path d="M9.71536 0H3.01974C2.26649 0.000572079 1.54429 0.298195 1.01176 0.827528C0.479226 1.35684 0.179789 2.07464 0.179199 2.82338V16.6547C0.179775 17.4034 0.479207 18.1212 1.01176 18.6505C1.54429 19.1799 2.26645 19.4775 3.01974 19.4781H9.71536C10.4686 19.4775 11.1908 19.1799 11.7233 18.6505C12.2559 18.1212 12.5553 17.4034 12.5559 16.6547V2.82338C12.5553 2.07468 12.2559 1.35684 11.7233 0.827528C11.1908 0.298213 10.4687 0.000585809 9.71536 0ZM11.5245 16.6549C11.5233 17.1315 11.3324 17.5882 10.9934 17.9252C10.6544 18.2621 10.1948 18.4519 9.71536 18.4531H3.01974C2.54029 18.4519 2.08073 18.2622 1.74173 17.9252C1.40273 17.5882 1.21178 17.1314 1.21063 16.6549V2.8236C1.21179 2.34704 1.40273 1.89026 1.74173 1.55331C2.08074 1.21636 2.54033 1.02656 3.01974 1.02542H9.71536C10.1948 1.02657 10.6544 1.21635 10.9934 1.55331C11.3324 1.89027 11.5233 2.34708 11.5245 2.8236V16.6549Z" fill="#848A2D"/>
<path d="M7.39868 16.4026C7.39868 16.9688 6.93696 17.4278 6.36731 17.4278C5.79766 17.4278 5.33594 16.9688 5.33594 16.4026C5.33594 15.8364 5.79766 15.3774 6.36731 15.3774C6.93696 15.3774 7.39868 15.8364 7.39868 16.4026Z" fill="#848A2D"/>
</svg>
