<svg width="25" height="24" viewBox="0 0 25 24" fill="none" xmlns="http://www.w3.org/2000/svg">
<path d="M3.29102 4.25C3.29102 4.05109 3.37051 3.86032 3.51202 3.71967C3.65353 3.57902 3.84545 3.5 4.04557 3.5H4.60697C5.56274 3.5 6.1362 4.139 6.46318 4.733C6.6815 5.129 6.83945 5.588 6.9632 6.004C6.99667 6.00137 7.03023 6.00004 7.06381 6H19.6378C20.4728 6 21.0765 6.794 20.8471 7.593L19.008 14.002C18.8431 14.5769 18.4942 15.0827 18.0142 15.4428C17.5343 15.803 16.9493 15.9979 16.3479 15.998H10.3637C9.75758 15.998 9.16818 15.8002 8.68613 15.4349C8.20409 15.0696 7.85609 14.557 7.69563 13.976L6.93101 11.204L5.66335 6.956L5.66234 6.948C5.50539 6.381 5.35851 5.85 5.13918 5.454C4.92891 5.069 4.75989 5 4.60797 5H4.04557C3.84545 5 3.65353 4.92098 3.51202 4.78033C3.37051 4.63968 3.29102 4.44891 3.29102 4.25ZM8.39485 10.84L9.15041 13.579C9.30133 14.121 9.79732 14.498 10.3637 14.498H16.3479C16.6213 14.498 16.8872 14.4095 17.1054 14.2458C17.3236 14.0821 17.4822 13.8523 17.5572 13.591L19.3048 7.5H7.40084L8.38076 10.787L8.39485 10.84Z" fill="white"/>
<path d="M11.8427 19C11.8427 19.5304 11.6307 20.0391 11.2533 20.4142C10.876 20.7893 10.3642 21 9.83052 21C9.29686 21 8.78506 20.7893 8.40771 20.4142C8.03035 20.0391 7.81836 19.5304 7.81836 19C7.81836 18.4696 8.03035 17.9609 8.40771 17.5858C8.78506 17.2107 9.29686 17 9.83052 17C10.3642 17 10.876 17.2107 11.2533 17.5858C11.6307 17.9609 11.8427 18.4696 11.8427 19ZM10.3336 19C10.3336 18.8674 10.2806 18.7402 10.1862 18.6464C10.0919 18.5527 9.96393 18.5 9.83052 18.5C9.6971 18.5 9.56915 18.5527 9.47481 18.6464C9.38047 18.7402 9.32748 18.8674 9.32748 19C9.32748 19.1326 9.38047 19.2598 9.47481 19.3536C9.56915 19.4473 9.6971 19.5 9.83052 19.5C9.96393 19.5 10.0919 19.4473 10.1862 19.3536C10.2806 19.2598 10.3336 19.1326 10.3336 19Z" fill="white"/>
<path d="M18.8856 19C18.8856 19.5304 18.6736 20.0391 18.2963 20.4142C17.9189 20.7893 17.4071 21 16.8735 21C16.3398 21 15.828 20.7893 15.4507 20.4142C15.0733 20.0391 14.8613 19.5304 14.8613 19C14.8613 18.4696 15.0733 17.9609 15.4507 17.5858C15.828 17.2107 16.3398 17 16.8735 17C17.4071 17 17.9189 17.2107 18.2963 17.5858C18.6736 17.9609 18.8856 18.4696 18.8856 19ZM17.3765 19C17.3765 18.8674 17.3235 18.7402 17.2292 18.6464C17.1348 18.5527 17.0069 18.5 16.8735 18.5C16.7401 18.5 16.6121 18.5527 16.5178 18.6464C16.4234 18.7402 16.3704 18.8674 16.3704 19C16.3704 19.1326 16.4234 19.2598 16.5178 19.3536C16.6121 19.4473 16.7401 19.5 16.8735 19.5C17.0069 19.5 17.1348 19.4473 17.2292 19.3536C17.3235 19.2598 17.3765 19.1326 17.3765 19Z" fill="white"/>
</svg>
